<svg xmlns="http://www.w3.org/2000/svg" xmlns:xlink="http://www.w3.org/1999/xlink" width="26" height="31" viewBox="0 0 26 31">
    <defs>
        <path id="a" d="M.436.213h16.26V9.35H.436z"/>
        <path id="c" d="M.37.508h16.39v19.887H.37z"/>
    </defs>
    <g fill="none" fill-rule="evenodd">
        <g transform="translate(4.079 .603)">
            <mask id="b" fill="#fff">
                <use xlink:href="#a"/>
            </mask>
            <path fill="#FFF" d="M12.432 5.138c.425 0 .773.348.773.773a.766.766 0 0 1-.773.763.766.766 0 0 1-.773-.763c0-.425.348-.773.773-.773m-7.733 0c.426 0 .774.348.774.773a.766.766 0 0 1-.774.763.766.766 0 0 1-.773-.763c0-.425.348-.773.773-.773M3.304.437l1.395 2.427C2.159 4.11.436 6.55.436 9.35h16.26c0-2.8-1.723-5.24-4.264-6.487L13.828.437s.066-.13-.058-.202c-.127-.072-.21.052-.21.052l-1.418 2.449a8.788 8.788 0 0 0-3.576-.753 8.785 8.785 0 0 0-3.577.753L3.572.286s-.079-.123-.205-.05c-.128.071-.063.2-.063.2" mask="url(#b)"/>
        </g>
        <g transform="translate(4.079 10.393)">
            <mask id="d" fill="#fff">
                <use xlink:href="#c"/>
            </mask>
            <path fill="#FFF" d="M.37.508v12.335c0 .612.74 1.413 1.352 1.413h1.935v4.206c0 1.07.78 1.933 1.75 1.933s1.75-.863 1.75-1.933v-4.206h2.815v4.206c0 1.07.78 1.933 1.75 1.933s1.762-.863 1.762-1.933v-4.206h1.923c.613 0 1.352-.8 1.352-1.413V.508H.37z" mask="url(#d)"/>
        </g>
        <path fill="#FFF" d="M1.752 10.642c.969 0 1.752.866 1.752 1.933v7.32c0 1.066-.783 1.932-1.752 1.932C.784 21.827 0 20.96 0 19.894v-7.319c0-1.067.784-1.933 1.752-1.933M23.537 10.642c.969 0 1.752.866 1.752 1.933v7.32c0 1.066-.783 1.932-1.752 1.932-.967 0-1.751-.866-1.751-1.933v-7.319c0-1.067.784-1.933 1.751-1.933"/>
    </g>
</svg>
