<svg xmlns="http://www.w3.org/2000/svg" width="30" height="29" viewBox="0 0 30 29">
    <g fill="#FFF" fill-rule="nonzero">
        <path d="M30 1.61c0-.846-.682-1.528-1.527-1.528H1.527C.682.082 0 .764 0 1.609v5.046c0 .381.136.736.355.981A1.603 1.603 0 0 0 0 8.618v5.046c0 .381.136.736.355.981a1.603 1.603 0 0 0-.355.982v5.1c0 .846.682 1.528 1.527 1.528h12.928v2.563h-2.619c-.9 0-1.69.627-1.909 1.446H.545c-.3 0-.545.245-.545.545 0 .3.245.546.545.546h9.382a1.988 1.988 0 0 0 1.91 1.445h6.327c.9 0 1.69-.627 1.909-1.445h9.382c.3 0 .545-.246.545-.546 0-.3-.245-.545-.545-.545h-9.382a1.988 1.988 0 0 0-1.91-1.446h-2.618v-2.563h12.928c.845 0 1.527-.682 1.527-1.528v-5.045a1.49 1.49 0 0 0-.355-.982c.219-.273.355-.627.355-.982V8.645a1.49 1.49 0 0 0-.355-.981c.219-.273.355-.628.355-.982V1.609zM19.064 26.835c0 .491-.41.9-.9.9h-6.328c-.49 0-.9-.409-.9-.9 0-.49.41-.9.9-.9h6.328c.49 0 .9.41.9.9zM1.09 1.61a.43.43 0 0 1 .436-.436h26.918a.43.43 0 0 1 .437.436v5.046a.43.43 0 0 1-.437.436H1.527a.43.43 0 0 1-.436-.436V1.609zm27.818 7.036v5.046a.43.43 0 0 1-.436.436H1.527a.43.43 0 0 1-.436-.436V8.645a.43.43 0 0 1 .436-.436h26.918c.273 0 .464.191.464.436zm0 12.082a.43.43 0 0 1-.436.437H1.527a.43.43 0 0 1-.436-.437v-5.045a.43.43 0 0 1 .436-.437h26.918a.43.43 0 0 1 .437.437v5.045h.027z"/>
        <path d="M25.882 5.81c.9 0 1.636-.737 1.636-1.61 0-.873-.736-1.61-1.636-1.61-.9 0-1.637.737-1.637 1.61 0 .873.737 1.61 1.637 1.61zm0-2.155c.3 0 .545.245.545.518 0 .272-.245.518-.545.518-.3 0-.546-.246-.546-.518 0-.273.246-.518.546-.518zM25.882 12.845c.9 0 1.636-.736 1.636-1.609 0-.9-.736-1.609-1.636-1.609-.9 0-1.637.737-1.637 1.61 0 .872.737 1.608 1.637 1.608zm0-2.154c.3 0 .545.245.545.518s-.245.518-.545.518c-.3 0-.546-.245-.546-.518s.246-.518.546-.518zM25.882 16.636c-.9 0-1.637.737-1.637 1.61 0 .872.737 1.609 1.637 1.609s1.636-.737 1.636-1.61c0-.872-.736-1.609-1.636-1.609zm0 2.155c-.3 0-.546-.246-.546-.518 0-.273.246-.518.546-.518.3 0 .545.245.545.518 0 .272-.245.518-.545.518z"/>
    </g>
</svg>
