<svg xmlns="http://www.w3.org/2000/svg" xmlns:xlink="http://www.w3.org/1999/xlink" width="35" height="33" viewBox="0 0 35 33">
    <defs>
        <path id="a" d="M0 .035h34.986v32.769H0z"/>
    </defs>
    <g fill="none" fill-rule="evenodd">
        <path fill="#FFF" d="M33.648 28.775V24.87a.275.275 0 0 0-.274-.274h-4.317c.405-1.043.666-2.135.782-3.253h.968a1.271 1.271 0 0 0 2.512-.275 1.271 1.271 0 0 0-2.512-.274h-.927a12.286 12.286 0 0 0-.226-3.17h1.393a.275.275 0 0 0 .275-.275v-3.294a1.271 1.271 0 0 0-.275-2.512 1.271 1.271 0 0 0-.274 2.512v3.02h-1.25a12.437 12.437 0 0 0-3.06-5.546 10.749 10.749 0 0 0-3.137-7.981C19.751-.028 14.124-.618 9.896 2.127l-2.82-.933a1.027 1.027 0 0 0-1.05.247c-.275.274-.371.68-.248 1.043l.94 2.814C4.75 8.33 4.455 12.236 5.944 15.544c-.274.693-.48 1.407-.624 2.14H1.887v-3.63a1.271 1.271 0 0 0-.275-2.512 1.271 1.271 0 0 0-.274 2.513v3.904c0 .151.124.275.275.275h3.616a12.293 12.293 0 0 0-.061 3.253h-.982a1.271 1.271 0 0 0-2.512.275 1.271 1.271 0 0 0 2.512.274h1.057c.172 1.098.494 2.162.947 3.17H3.94a.275.275 0 0 0-.275.275v3.294a1.271 1.271 0 0 0 .275 2.512 1.271 1.271 0 0 0 .274-2.512v-3.02H6.45a12.426 12.426 0 0 0 2.265 3.102 12.329 12.329 0 0 0 8.777 3.638c2.416 0 4.756-.693 6.767-2.004l3.287 1.09c.117.042.24.063.364.063.302 0 .59-.124.81-.337.308-.308.411-.754.274-1.166l-1.098-3.288a11.75 11.75 0 0 0 .927-1.708h4.268v3.63a1.271 1.271 0 0 0 .275 2.512c.7 0 1.27-.57 1.27-1.27a1.255 1.255 0 0 0-.989-1.242m-1.606-8.434a.72.72 0 1 1 0 1.44.72.72 0 0 1 0-1.44m-1.716-7.536a.72.72 0 1 1 .721.721.73.73 0 0 1-.72-.72m-29.442 0a.72.72 0 1 1 1.441 0 .72.72 0 0 1-1.44 0m2.044 9.67a.72.72 0 1 1 0-1.442.72.72 0 0 1 0 1.441m1.716 7.542a.72.72 0 1 1-1.441 0 .72.72 0 0 1 1.441 0M7.254 5.483a.27.27 0 0 0 .034-.24l-.981-2.944a.464.464 0 0 1 .11-.474.465.465 0 0 1 .48-.117l2.944.982a.27.27 0 0 0 .24-.035c4.022-2.683 9.423-2.14 12.847 1.277a10.207 10.207 0 0 1 2.979 7.048 12.315 12.315 0 0 0-8.428-3.3c-3.314 0-6.43 1.29-8.77 3.63a12.281 12.281 0 0 0-2.47 3.52c-1.195-3.075-.824-6.602 1.015-9.347m20.1 21.178a.27.27 0 0 0-.033.24l1.139 3.418a.58.58 0 0 1-.137.597.581.581 0 0 1-.604.144L24.3 29.928a.27.27 0 0 0-.24.034 11.807 11.807 0 0 1-6.575 1.984c-3.17 0-6.149-1.236-8.386-3.473a12.087 12.087 0 0 1-2.244-3.116A11.866 11.866 0 0 1 5.813 18 11.793 11.793 0 0 1 9.1 11.7a11.78 11.78 0 0 1 8.38-3.472c3.163 0 6.142 1.235 8.386 3.473.034.027.061.061.096.096l.007.006c0 .007.006.007.013.014a11.86 11.86 0 0 1 3.054 5.586c.275 1.195.364 2.416.268 3.638a11.746 11.746 0 0 1-.92 3.72 11.309 11.309 0 0 1-1.03 1.9m6.02 4.07a.72.72 0 1 1 .72-.72.73.73 0 0 1-.72.72"/>
        <path fill="#FFF" d="M1.599 12.256a.55.55 0 0 0-.549.55.55.55 0 0 0 .549.548.55.55 0 0 0 .549-.549.55.55 0 0 0-.549-.549zm0 1.435a.89.89 0 0 1-.892-.892c0-.488.398-.893.892-.893.487 0 .892.398.892.893a.89.89 0 0 1-.892.892zm29.448-1.435a.55.55 0 0 0-.549.55.55.55 0 0 0 .55.548.55.55 0 0 0 .548-.549.55.55 0 0 0-.549-.549zm0 1.435a.895.895 0 0 1-.892-.892.89.89 0 0 1 .892-.893.89.89 0 0 1 .892.893.895.895 0 0 1-.892.892zM6.747 1.846a.327.327 0 0 0-.214.089.276.276 0 0 0-.068.302l.981 2.944a.442.442 0 0 1-.055.391 10.001 10.001 0 0 0-1.132 8.812 12.517 12.517 0 0 1 2.326-3.205 12.495 12.495 0 0 1 8.894-3.685 12.54 12.54 0 0 1 8.243 3.074 10.107 10.107 0 0 0-2.917-6.533C19.442.672 14.124.137 10.17 2.779a.465.465 0 0 1-.392.055l-2.944-.981c-.027 0-.055-.007-.089-.007zm-.522 13.416l-.145-.377A10.386 10.386 0 0 1 7.11 5.38a.105.105 0 0 0 .014-.09l-.982-2.943a.637.637 0 0 1 .151-.652.648.648 0 0 1 .659-.158l2.944.981c.034.014.062.007.09-.014C14.075-.22 19.572.322 23.051 3.808a10.44 10.44 0 0 1 3.033 7.165l.007.398-.295-.274a12.187 12.187 0 0 0-8.31-3.26 12.13 12.13 0 0 0-8.648 3.582 12.082 12.082 0 0 0-2.436 3.473l-.178.37zm25.817 5.25a.55.55 0 0 0-.549.55.55.55 0 0 0 .55.548.55.55 0 0 0 .548-.549.555.555 0 0 0-.549-.549zm0 1.442a.895.895 0 0 1-.892-.893c0-.487.398-.892.892-.892a.89.89 0 0 1 .892.892.904.904 0 0 1-.892.893zM2.93 21.205a.55.55 0 0 0-.549.55.55.55 0 0 0 .934.39.54.54 0 0 0 .158-.384.542.542 0 0 0-.543-.556zm0 1.442a.89.89 0 0 1-.892-.893.89.89 0 0 1 .892-.892.895.895 0 0 1 .632 1.524.905.905 0 0 1-.632.26zm.995 6.821a.55.55 0 0 0-.549.55.55.55 0 0 0 .55.548.55.55 0 0 0 .549-.549.55.55 0 0 0-.55-.549zm0 1.435a.89.89 0 0 1-.892-.893c0-.487.398-.892.892-.892.488 0 .893.398.893.892a.895.895 0 0 1-.893.893zm29.449-1.435a.55.55 0 0 0-.55.55.55.55 0 0 0 .55.548.55.55 0 0 0 .549-.549.555.555 0 0 0-.55-.549zm0 1.435a.89.89 0 0 1-.893-.893c0-.487.398-.892.893-.892a.89.89 0 0 1 .892.892.9.9 0 0 1-.892.893zM17.479 8.4a11.608 11.608 0 0 0-8.255 3.417 11.644 11.644 0 0 0-3.247 6.211c-.22 1.215-.24 2.45-.068 3.665a11.594 11.594 0 0 0 1.105 3.589 11.674 11.674 0 0 0 2.21 3.068 11.602 11.602 0 0 0 8.262 3.424c2.32 0 4.557-.68 6.479-1.956a.465.465 0 0 1 .39-.055l3.419 1.133a.395.395 0 0 0 .425-.103.397.397 0 0 0 .096-.419l-1.14-3.418a.465.465 0 0 1 .056-.39 11.632 11.632 0 0 0 1.922-5.538 11.674 11.674 0 0 0-3.28-9.093l-.015-.015-.007-.007-.089-.089A11.59 11.59 0 0 0 17.48 8.4zm.007 23.71a11.96 11.96 0 0 1-8.51-3.52 11.917 11.917 0 0 1-2.271-3.157 11.767 11.767 0 0 1-1.132-3.692 12.009 12.009 0 0 1 .075-3.775c.144-.823.377-1.626.693-2.402a11.857 11.857 0 0 1 2.65-3.987 11.944 11.944 0 0 1 8.502-3.52 11.95 11.95 0 0 1 8.51 3.527c.034.027.062.062.096.096l.02.02a11.998 11.998 0 0 1 3.103 5.67c.28 1.207.37 2.45.274 3.691a11.953 11.953 0 0 1-.933 3.775 12.163 12.163 0 0 1-1.043 1.928.105.105 0 0 0-.014.09l1.14 3.417c.088.268.02.57-.18.776a.754.754 0 0 1-.782.185L24.267 30.1c-.035-.014-.062-.007-.09.013a12.195 12.195 0 0 1-6.69 1.997zM4.028 25.584h2.52l.047.096a12.109 12.109 0 0 0 2.237 3.06 12.157 12.157 0 0 0 8.654 3.583c2.382 0 4.688-.68 6.67-1.976l.07-.048 3.37 1.118a.97.97 0 0 0 .994-.24c.261-.26.35-.638.234-.988l-1.126-3.37.048-.068c.35-.536.659-1.098.92-1.682l.048-.103h4.557v3.94l-.138.027a1.1 1.1 0 0 0-.858 1.07c0 .604.495 1.099 1.099 1.099.603 0 1.098-.495 1.098-1.098 0-.508-.364-.961-.865-1.071l-.137-.027v-4.043a.106.106 0 0 0-.103-.103h-4.57l.088-.233a12.26 12.26 0 0 0 .769-3.212l.014-.15h1.256l.027.137a1.1 1.1 0 0 0 1.07.857c.604 0 1.099-.494 1.099-1.098 0-.604-.495-1.098-1.098-1.098-.508 0-.961.364-1.071.858l-.027.137H29.68l.007-.178c.062-1.05-.013-2.1-.226-3.13l-.041-.205h1.605a.106.106 0 0 0 .103-.103V13.91l.138-.027a1.1 1.1 0 0 0 .858-1.07c0-.605-.495-1.099-1.099-1.099-.603 0-1.098.494-1.098 1.098 0 .508.364.961.858 1.07l.138.028v3.329h-1.552l-.034-.13a12.273 12.273 0 0 0-3.02-5.47l-.047-.055v-.076a10.61 10.61 0 0 0-3.089-7.85C19.675.15 14.117-.44 9.965 2.257l-.069.047L7 1.345a.837.837 0 0 0-.872.206.832.832 0 0 0-.205.864l.967 2.896-.048.069c-1.928 2.978-2.223 6.842-.768 10.081l.027.069-.027.069a12.56 12.56 0 0 0-.618 2.106l-.028.138H1.681v-3.94l.138-.027a1.1 1.1 0 0 0 .857-1.07c0-.604-.494-1.099-1.098-1.099-.603 0-1.098.495-1.098 1.098 0 .508.364.961.858 1.071l.137.027v4.043c0 .055.049.103.103.103h3.816l-.027.199a12.578 12.578 0 0 0-.062 3.211l.02.193h-1.31l-.028-.138a1.1 1.1 0 0 0-1.07-.858c-.604 0-1.098.495-1.098 1.098 0 .604.494 1.099 1.098 1.099.508 0 .96-.364 1.07-.865l.028-.137h1.338l.02.144c.172 1.077.488 2.127.934 3.122l.11.24H3.898a.106.106 0 0 0-.103.103v3.432l-.137.027a1.1 1.1 0 0 0-.858 1.07c0 .605.494 1.099 1.098 1.099.604 0 1.098-.494 1.098-1.098 0-.508-.364-.961-.858-1.07l-.137-.028v-3.308h.027zm13.458 7.082a12.51 12.51 0 0 1-8.9-3.685 12.551 12.551 0 0 1-2.252-3.054H4.372v2.718a1.441 1.441 0 1 1-.892 0V25.48c0-.247.198-.446.445-.446H5.91a12.626 12.626 0 0 1-.83-2.828h-.783a1.441 1.441 0 1 1-1.373-1.887c.625 0 1.18.412 1.373.995h.659a12.51 12.51 0 0 1 .055-2.91H1.592a.445.445 0 0 1-.446-.446v-3.774a1.441 1.441 0 1 1 1.887-1.373c0 .625-.411 1.18-.995 1.373v3.328h3.123c.137-.665.336-1.324.583-1.962-1.462-3.308-1.167-7.234.776-10.274L5.607 2.54a1.188 1.188 0 0 1 .288-1.222c.323-.322.796-.439 1.229-.288l2.738.913a10.936 10.936 0 0 1 13.575 1.49 10.98 10.98 0 0 1 3.19 8.035 12.526 12.526 0 0 1 3.02 5.442h.94v-2.717a1.441 1.441 0 1 1 .892 0v3.164a.445.445 0 0 1-.446.446h-1.187c.172.933.24 1.88.2 2.827h.61a1.44 1.44 0 1 1 1.373 1.887c-.625 0-1.181-.411-1.373-.995h-.68c-.11.995-.343 1.97-.686 2.91h4.07c.247 0 .446.199.446.446v3.775a1.441 1.441 0 1 1-1.887 1.373c0-.625.411-1.181.995-1.373v-3.329h-3.988a12.64 12.64 0 0 1-.85 1.558l1.07 3.212a1.29 1.29 0 0 1-.316 1.338 1.297 1.297 0 0 1-1.352.323l-3.211-1.064a12.535 12.535 0 0 1-6.78 1.976z"/>
        <path fill="#FFF" d="M1.599 12.256a.55.55 0 0 0-.549.55.55.55 0 0 0 .549.548.55.55 0 0 0 .549-.549.55.55 0 0 0-.549-.549zm0 1.435a.89.89 0 0 1-.892-.892c0-.488.398-.893.892-.893.487 0 .892.398.892.893a.89.89 0 0 1-.892.892zm29.448-1.435a.55.55 0 0 0-.549.55.55.55 0 0 0 .55.548.55.55 0 0 0 .548-.549.55.55 0 0 0-.549-.549zm0 1.435a.895.895 0 0 1-.892-.892.89.89 0 0 1 .892-.893.89.89 0 0 1 .892.893.895.895 0 0 1-.892.892zM6.747 1.846a.327.327 0 0 0-.214.089.276.276 0 0 0-.068.302l.981 2.944a.442.442 0 0 1-.055.391 10.001 10.001 0 0 0-1.132 8.812 12.517 12.517 0 0 1 2.326-3.205 12.495 12.495 0 0 1 8.894-3.685 12.54 12.54 0 0 1 8.243 3.074 10.107 10.107 0 0 0-2.917-6.533C19.442.672 14.124.137 10.17 2.779a.465.465 0 0 1-.392.055l-2.944-.981c-.027 0-.055-.007-.089-.007zm-.522 13.416l-.145-.377A10.386 10.386 0 0 1 7.11 5.38a.105.105 0 0 0 .014-.09l-.982-2.943a.637.637 0 0 1 .151-.652.648.648 0 0 1 .659-.158l2.944.981c.034.014.062.007.09-.014C14.075-.22 19.572.322 23.051 3.808a10.44 10.44 0 0 1 3.033 7.165l.007.398-.295-.274a12.187 12.187 0 0 0-8.31-3.26 12.13 12.13 0 0 0-8.648 3.582 12.082 12.082 0 0 0-2.436 3.473l-.178.37zm25.817 5.25a.55.55 0 0 0-.549.55.55.55 0 0 0 .55.548.55.55 0 0 0 .548-.549.555.555 0 0 0-.549-.549zm0 1.442a.895.895 0 0 1-.892-.893c0-.487.398-.892.892-.892a.89.89 0 0 1 .892.892.904.904 0 0 1-.892.893zM2.93 21.205a.55.55 0 0 0-.549.55.55.55 0 0 0 .934.39.54.54 0 0 0 .158-.384.542.542 0 0 0-.543-.556zm0 1.442a.89.89 0 0 1-.892-.893.89.89 0 0 1 .892-.892.895.895 0 0 1 .632 1.524.905.905 0 0 1-.632.26zm.995 6.821a.55.55 0 0 0-.549.55.55.55 0 0 0 .55.548.55.55 0 0 0 .549-.549.55.55 0 0 0-.55-.549zm0 1.435a.89.89 0 0 1-.892-.893c0-.487.398-.892.892-.892.488 0 .893.398.893.892a.895.895 0 0 1-.893.893zm29.449-1.435a.55.55 0 0 0-.55.55.55.55 0 0 0 .55.548.55.55 0 0 0 .549-.549.555.555 0 0 0-.55-.549zm0 1.435a.89.89 0 0 1-.893-.893c0-.487.398-.892.893-.892a.89.89 0 0 1 .892.892.9.9 0 0 1-.892.893zM17.479 8.4a11.608 11.608 0 0 0-8.255 3.417 11.644 11.644 0 0 0-3.247 6.211c-.22 1.215-.24 2.45-.068 3.665a11.594 11.594 0 0 0 1.105 3.589 11.674 11.674 0 0 0 2.21 3.068 11.602 11.602 0 0 0 8.262 3.424c2.32 0 4.557-.68 6.479-1.956a.465.465 0 0 1 .39-.055l3.419 1.133a.395.395 0 0 0 .425-.103.397.397 0 0 0 .096-.419l-1.14-3.418a.465.465 0 0 1 .056-.39 11.632 11.632 0 0 0 1.922-5.538 11.674 11.674 0 0 0-3.28-9.093l-.015-.015-.007-.007-.089-.089A11.59 11.59 0 0 0 17.48 8.4zm.007 23.71a11.96 11.96 0 0 1-8.51-3.52 11.917 11.917 0 0 1-2.271-3.157 11.767 11.767 0 0 1-1.132-3.692 12.009 12.009 0 0 1 .075-3.775c.144-.823.377-1.626.693-2.402a11.857 11.857 0 0 1 2.65-3.987 11.944 11.944 0 0 1 8.502-3.52 11.95 11.95 0 0 1 8.51 3.527c.034.027.062.062.096.096l.02.02a11.998 11.998 0 0 1 3.103 5.67c.28 1.207.37 2.45.274 3.691a11.953 11.953 0 0 1-.933 3.775 12.163 12.163 0 0 1-1.043 1.928.105.105 0 0 0-.014.09l1.14 3.417c.088.268.02.57-.18.776a.754.754 0 0 1-.782.185L24.267 30.1c-.035-.014-.062-.007-.09.013a12.195 12.195 0 0 1-6.69 1.997zM4.028 25.584h2.52l.047.096a12.109 12.109 0 0 0 2.237 3.06 12.157 12.157 0 0 0 8.654 3.583c2.382 0 4.688-.68 6.67-1.976l.07-.048 3.37 1.118a.97.97 0 0 0 .994-.24c.261-.26.35-.638.234-.988l-1.126-3.37.048-.068c.35-.536.659-1.098.92-1.682l.048-.103h4.557v3.94l-.138.027a1.1 1.1 0 0 0-.858 1.07c0 .604.495 1.099 1.099 1.099.603 0 1.098-.495 1.098-1.098 0-.508-.364-.961-.865-1.071l-.137-.027v-4.043a.106.106 0 0 0-.103-.103h-4.57l.088-.233a12.26 12.26 0 0 0 .769-3.212l.014-.15h1.256l.027.137a1.1 1.1 0 0 0 1.07.857c.604 0 1.099-.494 1.099-1.098 0-.604-.495-1.098-1.098-1.098-.508 0-.961.364-1.071.858l-.027.137H29.68l.007-.178c.062-1.05-.013-2.1-.226-3.13l-.041-.205h1.605a.106.106 0 0 0 .103-.103V13.91l.138-.027a1.1 1.1 0 0 0 .858-1.07c0-.605-.495-1.099-1.099-1.099-.603 0-1.098.494-1.098 1.098 0 .508.364.961.858 1.07l.138.028v3.329h-1.552l-.034-.13a12.273 12.273 0 0 0-3.02-5.47l-.047-.055v-.076a10.61 10.61 0 0 0-3.089-7.85C19.675.15 14.117-.44 9.965 2.257l-.069.047L7 1.345a.837.837 0 0 0-.872.206.832.832 0 0 0-.205.864l.967 2.896-.048.069c-1.928 2.978-2.223 6.842-.768 10.081l.027.069-.027.069a12.56 12.56 0 0 0-.618 2.106l-.028.138H1.681v-3.94l.138-.027a1.1 1.1 0 0 0 .857-1.07c0-.604-.494-1.099-1.098-1.099-.603 0-1.098.495-1.098 1.098 0 .508.364.961.858 1.071l.137.027v4.043c0 .055.049.103.103.103h3.816l-.027.199a12.578 12.578 0 0 0-.062 3.211l.02.193h-1.31l-.028-.138a1.1 1.1 0 0 0-1.07-.858c-.604 0-1.098.495-1.098 1.098 0 .604.494 1.099 1.098 1.099.508 0 .96-.364 1.07-.865l.028-.137h1.338l.02.144c.172 1.077.488 2.127.934 3.122l.11.24H3.898a.106.106 0 0 0-.103.103v3.432l-.137.027a1.1 1.1 0 0 0-.858 1.07c0 .605.494 1.099 1.098 1.099.604 0 1.098-.494 1.098-1.098 0-.508-.364-.961-.858-1.07l-.137-.028v-3.308h.027zm13.458 7.082a12.51 12.51 0 0 1-8.9-3.685 12.551 12.551 0 0 1-2.252-3.054H4.372v2.718a1.441 1.441 0 1 1-.892 0V25.48c0-.247.198-.446.445-.446H5.91a12.626 12.626 0 0 1-.83-2.828h-.783a1.441 1.441 0 1 1-1.373-1.887c.625 0 1.18.412 1.373.995h.659a12.51 12.51 0 0 1 .055-2.91H1.592a.445.445 0 0 1-.446-.446v-3.774a1.441 1.441 0 1 1 1.887-1.373c0 .625-.411 1.18-.995 1.373v3.328h3.123c.137-.665.336-1.324.583-1.962-1.462-3.308-1.167-7.234.776-10.274L5.607 2.54a1.188 1.188 0 0 1 .288-1.222c.323-.322.796-.439 1.229-.288l2.738.913a10.936 10.936 0 0 1 13.575 1.49 10.98 10.98 0 0 1 3.19 8.035 12.526 12.526 0 0 1 3.02 5.442h.94v-2.717a1.441 1.441 0 1 1 .892 0v3.164a.445.445 0 0 1-.446.446h-1.187c.172.933.24 1.88.2 2.827h.61a1.44 1.44 0 1 1 1.373 1.887c-.625 0-1.181-.411-1.373-.995h-.68c-.11.995-.343 1.97-.686 2.91h4.07c.247 0 .446.199.446.446v3.775a1.441 1.441 0 1 1-1.887 1.373c0-.625.411-1.181.995-1.373v-3.329h-3.988a12.64 12.64 0 0 1-.85 1.558l1.07 3.212a1.29 1.29 0 0 1-.316 1.338 1.297 1.297 0 0 1-1.352.323l-3.211-1.064a12.535 12.535 0 0 1-6.78 1.976z"/>
        <g transform="translate(0 .034)">
            <mask id="b" fill="#fff">
                <use xlink:href="#a"/>
            </mask>
            <path fill="#FFF" d="M6.993 1.119l.082.02 1.524.508-1.524-.508-.082-.02zM15.71.364c1.832 0 3.65.46 5.27 1.365A10.76 10.76 0 0 0 12.963.72 10.917 10.917 0 0 1 15.71.365zm-5.82 1.735c.024-.012.047-.024.07-.047l-.07.047zM6.876 1.66c.007 0 .014.007.021.007l2.944.981a.27.27 0 0 1 0 0l-2.944-.974c-.007-.007-.014-.014-.02-.014zm-.974-.124a.994.994 0 0 0-.124.9l.611 1.832-.61-1.833a1.015 1.015 0 0 1 .123-.899zm.528.227l-.02.02a.45.45 0 0 0-.11.474l.83 2.491-.83-2.491a.465.465 0 0 1 .11-.474c.014-.006.014-.013.02-.02zm.31 3.486l-.05.069a4.89 4.89 0 0 1 .05-.069zm10.74 2.388c.011 0 .011 0 0 0 .011 0 .011 0 0 0zm.006 0s.012 0 0 0c.012 0 0 0 0 0zm-.04 0h-.118.117zm-.255.007c-.089 0-.185.012-.274.012.096-.012.185-.012.274-.012zm-.278.007c-.011 0-.011 0 0 0-.011 0-.011 0 0 0zm6.105-3.678zm2.614 6.718c.096.082.186.165.282.247v-.007l-.282-.24zm-8.736-3.04a12.305 12.305 0 0 0-8.18 3.617c-.076.075-.151.157-.227.233.076-.076.151-.158.227-.233a12.305 12.305 0 0 1 8.18-3.617zm.61.542a11.778 11.778 0 0 1 8.36 3.48l.082.082-.082-.082a11.767 11.767 0 0 0-8.36-3.48zm8.957 3.287c.089.096.185.193.274.295-.075-.082-.15-.164-.226-.24l-.048-.055v-.061.061zm.274.295c0 .012 0 .012 0 0 0 .012 0 .012 0 0zM17.48 8.194zm12.847 4.578v.011-.011zm-28.006 0v.011-.011zm29.45 0v.011c-.012-.011 0-.011 0-.011zm-30.885.006v.024-.024zm.714-.384a.38.38 0 0 0-.377.378.38.38 0 0 0 .377.377.38.38 0 0 0 .377-.377.376.376 0 0 0-.377-.378zm29.448 0a.38.38 0 0 0-.377.378.38.38 0 0 0 .377.377.38.38 0 0 0 .378-.377.376.376 0 0 0-.378-.378zm-30.162.398zm29.441-.014zM6.746 1.983a.12.12 0 0 0-.09.041c-.033.035-.047.083-.027.124l.982 2.951a.63.63 0 0 1-.069.542l-.007.007a9.894 9.894 0 0 0-1.235 8.27 12.46 12.46 0 0 1 2.169-2.883 12.656 12.656 0 0 1 9.01-3.733c2.938 0 5.779 1.009 8.044 2.855-.227-2.251-1.243-4.427-2.835-6.012C19.38.837 14.158.315 10.274 2.91a.63.63 0 0 1-.543.075l-2.944-.981c-.013-.014-.027-.02-.04-.02zM1.208 13.98l.117.059v-.012a.483.483 0 0 1-.117-.047zm29.448 0l.117.059v-.012c-.037-.012-.073-.023-.117-.047zM7.096 5.69a10.193 10.193 0 0 0-1.043 8.572 10.24 10.24 0 0 1 1.043-8.572zm-.858 9.093v.007a5.33 5.33 0 0 1 .172-.343l-.172.336zm-.418.44c.027.075.061.144.089.212l.027.062-.02.055.02-.055a4.696 4.696 0 0 1-.116-.274zm23.723 1.805l-.047-.117c.012.041.035.082.047.117zM6.17 16.512a10.36 10.36 0 0 0-.172.617 5.83 5.83 0 0 1 .172-.617zm-4.29 1.125v-3.623l.117-.041c.007 0 .02-.007.028-.007l-.145.04v3.631zm3.432 0c.011-.04.035-.082.046-.13l-.046.13zm24.335-.055c.02.117.048.234.069.35a1.067 1.067 0 0 0-.028-.144l-.04-.206h1.4a.275.275 0 0 0 .274-.274V14.02l.116-.042c-.034.014-.075.021-.116.035v3.294a.275.275 0 0 1-.275.274h-1.4zm-28.322.33c0 .15.123.274.274.274h3.61l-.028.179c.007-.062.014-.117.028-.179H1.592c-.144.007-.267-.116-.267-.274zm30.72 1.846c-.01 0-.01 0 0 0-.01 0-.01 0 0 0zm.002.549h-.012.012zM2.93 20.45c.012 0 .012 0 0 0 .012 0 .012 0 0 0zm26.42-.316c0 .11 0 .22-.012.337 0-.11.012-.22.012-.337zm.53.618l.012-.172c-.012.055-.012.117-.012.172zm.913 0c.023-.041.047-.076.058-.117l-.058.117zm.529.275c0 .047.011.096.023.144-.012-.048-.023-.097-.023-.144zm-26.189.219c0 .012 0 .012 0 0 0 .012 0 .012 0 0zm26.91-.597a.38.38 0 0 0-.378.378.38.38 0 0 0 .377.377.38.38 0 0 0 .378-.377.385.385 0 0 0-.378-.378zm-27.846.796l-.059-.117a.423.423 0 0 1 .059.117zm.971 0l-.035-.192.035.192zM2.938 21zm26.894.302l-.04.343.02-.192.02-.151h.961l.034.11c-.013-.035-.02-.076-.034-.11h-.96zm2.196.446a.724.724 0 0 0 .735-.72.732.732 0 0 1-.735.72zM2.93 21.343a.38.38 0 0 0-.377.378.38.38 0 0 0 .377.377.391.391 0 0 0 .268-.11.379.379 0 0 0-.268-.645zm1.25.652h1.05l.027.144.02.13c-.013-.089-.034-.185-.048-.274H4.18c-.013.041-.027.076-.034.11l.034-.11zm1.097.275c0 .011 0 .011 0 0 0 .011 0 .011 0 0zm0 .006c0 .012 0 .012 0 0 0 .012 0 .012 0 0zm26.765.021zm-28.391-.576zm-1.441 0zm-.55 0zm27.39 2.834l.09-.233c.034-.09.061-.179.095-.268a6.228 6.228 0 0 1-.185.5zm-22.88.61c-.076-.17-.145-.342-.213-.514.034.09.075.185.11.274l.103.24zm22.654-.054l-.042.117.042-.117h4.268-4.268zM6.767 26.319c.011 0 .011 0 0 0 .011 0 .011 0 0 0zM29.2 21.885a11.823 11.823 0 0 1 0 0zm-1.88 4.962c0 .007.006.014.006.02l.165.488-.165-.487c-.006-.007-.006-.014-.006-.021zM5.71 18.687c-.117.995-.103 2.004.034 3a11.66 11.66 0 0 1 0 0 11.55 11.55 0 0 1-.034-3zm2.525 9.642s.012 0 0 0c.012 0 0 0 0 0zm.007 0c0 .012 0 .012 0 0 0 .012 0 .012 0 0zm.007.007s0 .012 0 0c0 .012 0 0 0 0zm0 .007c.012 0 .012 0 0 0 .012 0 .012 0 0 0zm.007.007s.012 0 0 0c.012 0 0 0 0 0zm-4.056.391c.034.007.075.02.11.028l-.11-.028v-3.02h2.237l.048.09c.09.164.179.33.275.494-.11-.192-.22-.391-.323-.59H4.2v3.026zm-.542-.007l-.117.059c.037-.012.073-.035.117-.059zm29.99.007c.041.007.082.02.117.034l-.117-.034v-3.905 3.905zm-.556-.007l-.117.07c-.006 0-.013.012-.02.012.048-.035.096-.058.137-.082zm-24.83-.377c.145.158.296.316.447.473-.151-.157-.302-.315-.446-.473zm-5.606 1.62s0 .011 0 0c0 .011 0 0 0 0zm2.54 0s0 .011 0 0c0 .011 0 0 0 0zm-1.27-.371a.38.38 0 0 0-.378.377.38.38 0 0 0 .377.378.38.38 0 0 0 .378-.378.376.376 0 0 0-.378-.377zm29.448 0a.38.38 0 0 0-.378.377.38.38 0 0 0 .378.378.38.38 0 0 0 .377-.378.38.38 0 0 0-.377-.377zm-30.17.377a.72.72 0 1 0 .721.721.73.73 0 0 1-.72-.72zm29.449 0a.72.72 0 1 0 1.441 0 .72.72 0 0 0-1.441 0zm-8.4.474c-.144.09-.281.178-.426.267.124-.068.24-.144.357-.22l.069-.047zm4.234-.096zm-4.275-.48c.027 0 .062.006.089.013l3.418 1.132c.013.007.027.007.04.014-.013-.007-.027-.007-.04-.014L24.3 29.894a.29.29 0 0 0-.226.02.24.24 0 0 1 .137-.034zm3.685-3.061l1.098 3.287a1.102 1.102 0 0 0 0 0l-1.098-3.287.041-.062a.161.161 0 0 0-.04.062zm4.2 3.156c0 .7.57 1.27 1.27 1.27h.013-.013a1.267 1.267 0 0 1-1.27-1.27zm-29.441.007a1.271 1.271 0 0 1 0 0zM17.479 8.537a11.43 11.43 0 0 0-8.139 3.37 11.416 11.416 0 0 0-3.191 6.115 11.376 11.376 0 0 0-.069 3.61 11.547 11.547 0 0 0 1.085 3.534 11.504 11.504 0 0 0 2.175 3.026 11.435 11.435 0 0 0 8.146 3.37c2.286 0 4.495-.666 6.383-1.929a.654.654 0 0 1 .542-.075l3.417 1.132c.09.034.186.007.254-.062.062-.068.09-.157.062-.247l-1.14-3.417a.61.61 0 0 1 .076-.542c.385-.584.721-1.201.995-1.846a11.53 11.53 0 0 0 .631-7.144 11.477 11.477 0 0 0-2.964-5.422l-.014-.014-.089-.09a11.501 11.501 0 0 0-8.16-3.369zm10.068 23.018c.117.041.24.062.357.062.281 0 .549-.103.762-.295a1.144 1.144 0 0 1-1.119.233zm-10.06.35h.058-.059zm0 .556h.01-.01zm0 .343a12.66 12.66 0 0 1-9.018-3.733c-.893-.893-1.64-1.901-2.23-3.006H4.55v2.43c.59.246.995.843.995 1.488 0 .893-.727 1.613-1.613 1.613a1.615 1.615 0 0 1-1.612-1.613c0-.645.405-1.242.995-1.489v-3.047c0-.343.274-.618.617-.618h1.73a13.032 13.032 0 0 1-.72-2.484h-.516c-.247.59-.844.995-1.489.995a1.615 1.615 0 0 1-1.612-1.613c0-.892.727-1.612 1.612-1.612.645 0 1.242.405 1.49.995h.356a12.838 12.838 0 0 1 .048-2.567H1.613a.62.62 0 0 1-.618-.618v-3.657A1.636 1.636 0 0 1 0 12.778c0-.892.727-1.612 1.613-1.612.892 0 1.612.727 1.612 1.612 0 .646-.404 1.243-.995 1.49V17.3h2.814c.13-.604.316-1.208.535-1.784-1.44-3.315-1.146-7.247.776-10.301L5.47 2.553a1.35 1.35 0 0 1 .329-1.393c.37-.37.906-.501 1.4-.33l2.663.886A11.115 11.115 0 0 1 23.58 3.274a11.11 11.11 0 0 1 3.239 8.09 12.798 12.798 0 0 1 2.978 5.333h.638v-2.43a1.636 1.636 0 0 1-.995-1.489c0-.892.728-1.612 1.613-1.612.892 0 1.613.727 1.613 1.612 0 .646-.405 1.243-.995 1.49v3.047a.62.62 0 0 1-.618.617h-.981c.137.817.199 1.654.171 2.485h.316c.247-.59.844-.995 1.489-.995.892 0 1.613.727 1.613 1.612 0 .892-.728 1.613-1.613 1.613a1.636 1.636 0 0 1-1.49-.995h-.411c-.11.871-.309 1.736-.597 2.567h3.823a.62.62 0 0 1 .617.617v3.658c.59.247.995.844.995 1.49 0 .891-.727 1.612-1.612 1.612a1.615 1.615 0 0 1-1.613-1.613c0-.645.405-1.242.995-1.489v-3.033H29.05c-.226.487-.487.96-.775 1.413l1.043 3.13a1.466 1.466 0 0 1-.357 1.517 1.486 1.486 0 0 1-1.524.363l-3.136-1.043a12.731 12.731 0 0 1-6.815 1.963z" mask="url(#b)"/>
        </g>
        <path fill="#FFF" d="M13.678 14.991c.225 0 .437.088.596.248a.839.839 0 0 1 0 1.193.864.864 0 0 1-1.193 0 .838.838 0 0 1-.247-.597c0-.225.088-.437.247-.596a.838.838 0 0 1 .597-.248m0 2.17c.354 0 .687-.138.937-.388s.389-.584.389-.938-.138-.687-.389-.937a1.317 1.317 0 0 0-.937-.389c-.354 0-.688.138-.938.389-.25.25-.388.583-.388.937 0 .354.138.687.388.938.25.25.584.388.938.388"/>
        <path fill="#FFF" d="M13.678 15.171a.66.66 0 0 1 .47.195.66.66 0 0 1 0 .939.666.666 0 0 1-.47.186.665.665 0 0 1-.47-.186.66.66 0 0 1 0-.94.66.66 0 0 1 .47-.194m0 1.68c.274 0 .538-.106.724-.292.193-.193.3-.45.3-.724 0-.273-.107-.53-.3-.724-.194-.193-.45-.3-.724-.3-.274 0-.53.107-.724.3-.194.194-.3.45-.3.724 0 .274.106.53.3.724.185.185.449.292.724.292m0-2.162c.306 0 .594.12.81.336.217.216.336.504.336.81 0 .306-.12.594-.336.81a1.139 1.139 0 0 1-.81.336c-.306 0-.594-.119-.81-.335a1.138 1.138 0 0 1-.336-.81c0-.307.119-.595.335-.811.217-.217.505-.336.81-.336m0 2.652c.403 0 .781-.157 1.066-.441.284-.284.44-.662.44-1.065 0-.402-.156-.78-.44-1.065a1.496 1.496 0 0 0-1.065-.44c-.403 0-.78.156-1.065.44a1.496 1.496 0 0 0-.441 1.065c0 .403.156.78.44 1.065.285.284.663.441 1.066.441"/>
        <path fill="#FFF" d="M25.072 27.243h-2.34l-.505-.466v-1.68h-1.543v-1.543H19.14v-1.542h-1.682l-1.288-1.338-.144.048a4.093 4.093 0 0 1-4.214-.979 4.2 4.2 0 0 1-.912-1.391 4.07 4.07 0 0 1 .912-4.392 4.094 4.094 0 0 1 5.783 0 4.092 4.092 0 0 1 .957 4.28l-.053.145 6.572 6.548v2.31zm-2.53.483h3.012v-2.994l-6.498-6.473a4.578 4.578 0 0 0-1.119-4.64 4.577 4.577 0 0 0-6.465 0 4.552 4.552 0 0 0-1.018 4.914 4.68 4.68 0 0 0 1.018 1.551 4.57 4.57 0 0 0 4.56 1.142l1.222 1.268h1.405v1.543h1.543v1.543h1.543v1.407l.797.739z"/>
        <path fill="#FFF" d="M22.772 27.14h2.197v-2.165l-6.588-6.564.075-.206a3.99 3.99 0 0 0-.933-4.172 3.991 3.991 0 0 0-5.637 0 3.967 3.967 0 0 0-.89 4.28c.216.526.515.983.89 1.358a3.99 3.99 0 0 0 4.108.953l.206-.068 1.303 1.353h1.74v1.542h1.544v1.544h1.543v1.737l.442.409zm2.403.206H22.69l-.567-.524V25.2H20.58v-1.544h-1.543v-1.543h-1.623l-1.273-1.322-.083.028a4.195 4.195 0 0 1-4.319-1.004 4.301 4.301 0 0 1-.934-1.425 4.173 4.173 0 0 1 .934-4.503 4.197 4.197 0 0 1 5.929 0 4.195 4.195 0 0 1 .98 4.387l-.03.083 6.556 6.532v2.456zm-2.592.277h2.868v-2.848l-6.512-6.488.02-.06a4.498 4.498 0 0 0-1.095-4.535 4.474 4.474 0 0 0-6.32 0 4.45 4.45 0 0 0-.994 4.803c.24.586.575 1.097.995 1.517a4.485 4.485 0 0 0 4.458 1.115l.06-.018 1.235 1.282h1.463v1.543h1.544v1.543h1.543v1.465l.735.68zm3.074.206h-3.155l-.86-.797v-1.35h-1.543V24.14h-1.543v-1.543H17.21l-1.208-1.255a4.69 4.69 0 0 1-4.603-1.185c-.44-.44-.79-.973-1.04-1.585a4.656 4.656 0 0 1 1.04-5.025 4.68 4.68 0 0 1 6.61 0 4.707 4.707 0 0 1 1.164 4.683l6.484 6.46v3.139z"/>
        <path fill="#FFF" d="M24.892 27.064h-2.09l-.395-.366v-1.78h-1.543v-1.544H19.32v-1.542h-1.785l-1.314-1.365-.252.084a3.913 3.913 0 0 1-4.03-.935 4.02 4.02 0 0 1-.872-1.332 3.89 3.89 0 0 1 .872-4.196 3.912 3.912 0 1 1 6.443 4.09l-.092.253 6.6 6.576v2.057zm-2.231.36h2.59v-2.566l-6.543-6.52.014-.036a4.273 4.273 0 0 0-.999-4.469 4.274 4.274 0 0 0-6.037 0 4.25 4.25 0 0 0-.952 4.586c.23.562.55 1.05.952 1.452a4.247 4.247 0 0 0 3.012 1.248c.462 0 .929-.074 1.385-.226l.037-.013 1.263 1.311h1.578v1.543h1.543v1.544h1.543v1.577l.614.568zm2.713.122h-2.761l-.688-.638V25.4h-1.543v-1.543h-1.543v-1.543H17.33l-1.245-1.292-.104.031a4.408 4.408 0 0 1-4.383-1.096 4.503 4.503 0 0 1-.978-1.492 4.372 4.372 0 0 1 .978-4.718 4.397 4.397 0 0 1 6.21 0 4.42 4.42 0 0 1 1.076 4.456l-.034.105 6.523 6.5v2.738zm-2.902.36h3.262v-3.248l-6.473-6.45a4.786 4.786 0 0 0-1.197-4.716 4.757 4.757 0 0 0-6.72 0 4.733 4.733 0 0 0-1.057 5.108c.255.623.611 1.165 1.058 1.612a4.766 4.766 0 0 0 4.633 1.216l1.2 1.246h1.3v1.543h1.544v1.543h1.543v1.306l.907.84z"/>
        <path fill="#FFF" d="M22.842 26.96h1.947v-1.91l-6.617-6.592.115-.315a3.808 3.808 0 0 0-6.274-3.983 3.786 3.786 0 0 0-.85 4.086c.206.503.492.94.85 1.297a3.812 3.812 0 0 0 3.924.91l.314-.104 1.328 1.38h1.845v1.543h1.543v1.543h1.543v1.838l.332.308zm2.153.206H22.76l-.457-.423V25.02H20.76v-1.544h-1.543v-1.542h-1.726l-1.3-1.35-.19.064a4.016 4.016 0 0 1-4.135-.96 4.122 4.122 0 0 1-.894-1.366 3.992 3.992 0 0 1 .894-4.308 4.017 4.017 0 0 1 5.675 0 4.015 4.015 0 0 1 .938 4.199l-.07.19 6.585 6.56v2.202zm-2.294.154h2.448V24.9l-6.56-6.535.036-.099a4.17 4.17 0 0 0-.974-4.36 4.171 4.171 0 0 0-5.893 0 4.147 4.147 0 0 0-.928 4.475c.224.548.537 1.025.928 1.417a4.131 4.131 0 0 0 2.94 1.218c.457 0 .913-.074 1.353-.221l.098-.033 1.277 1.327h1.638v1.542h1.543v1.544h1.543v1.635l.551.51zm2.776.329h-2.905l-.75-.696v-1.45h-1.543V23.96h-1.543v-1.543h-1.45l-1.23-1.279-.045.014a4.512 4.512 0 0 1-4.485-1.122 4.606 4.606 0 0 1-1-1.526 4.475 4.475 0 0 1 1-4.83 4.5 4.5 0 0 1 6.357 0 4.524 4.524 0 0 1 1.1 4.56l-.015.046 6.51 6.484v2.885zm-2.965.154h3.12V24.7l-6.488-6.462.018-.06a4.7 4.7 0 0 0-1.17-4.613 4.654 4.654 0 0 0-6.574 0 4.63 4.63 0 0 0-1.035 4.996c.25.61.597 1.14 1.035 1.578a4.677 4.677 0 0 0 4.533 1.19l.059-.016 1.211 1.258h1.36v1.543h1.544v1.543h1.543v1.364l.844.782zm3.325.206H22.43l-.97-.898v-1.248H19.92V24.32h-1.543v-1.543h-1.242l-1.188-1.234a4.882 4.882 0 0 1-4.674-1.259 4.968 4.968 0 0 1-1.08-1.645 4.836 4.836 0 0 1 1.08-5.22 4.86 4.86 0 0 1 6.865 0 4.91 4.91 0 0 1 1.24 4.76l6.46 6.436v3.394z"/>
        <path fill="#FFF" d="M18.9 20.372a.24.24 0 0 0 .17-.411l-.7-.7a.241.241 0 1 0-.34.341l.7.7a.24.24 0 0 0 .17.07"/>
        <path fill="#FFF" d="M18.2 19.37a.06.06 0 0 1 .044.019l.699.699a.061.061 0 0 1-.087.086l-.699-.7a.06.06 0 0 1 0-.086.06.06 0 0 1 .043-.017m.7 1.181a.421.421 0 0 0 .298-.719l-.7-.699a.418.418 0 0 0-.595 0 .418.418 0 0 0 0 .596l.699.699c.08.08.185.123.298.123M24.107 25.556a.24.24 0 0 0 .17-.412l-4.363-4.34a.24.24 0 1 0-.34.342l4.363 4.34a.24.24 0 0 0 .17.07"/>
        <path fill="#FFF" d="M19.744 20.914a.06.06 0 0 1 .042.017l4.365 4.34a.061.061 0 0 1-.044.105.06.06 0 0 1-.043-.018l-4.364-4.34a.061.061 0 0 1 .044-.104zm4.363 4.822a.422.422 0 0 0 .297-.72l-4.364-4.34a.417.417 0 0 0-.296-.122h-.001a.422.422 0 0 0-.296.72l4.364 4.34c.079.078.184.122.296.122z"/>
    </g>
</svg>
