<svg xmlns="http://www.w3.org/2000/svg" xmlns:xlink="http://www.w3.org/1999/xlink" width="30" height="31" viewBox="0 0 30 31">
    <defs>
        <path id="a" d="M0 0h13.815v19.197H0z"/>
        <path id="c" d="M.04.02h13.815v19.197H.04z"/>
        <path id="e" d="M.02 0h19.197v13.815H.02z"/>
    </defs>
    <g fill="none" fill-rule="evenodd">
        <g transform="translate(0 .06)">
            <mask id="b" fill="#fff">
                <use xlink:href="#a"/>
            </mask>
            <path fill="#FFF" d="M2.032 1.205h11.783V0H2.032C.912 0 0 .912 0 2.032v10.354c0 1.12.912 2.032 2.032 2.032H4.12a3.254 3.254 0 0 0-.384 1.526 3.257 3.257 0 0 0 3.253 3.253 3.257 3.257 0 0 0 3.253-3.253c0-.537-.136-1.061-.384-1.526h3.958v-1.205H8.568a.6.6 0 0 0-.36 1.086c.526.391.828.99.828 1.645a2.05 2.05 0 0 1-2.048 2.048 2.05 2.05 0 0 1-2.048-2.048c0-.654.301-1.254.828-1.645a.602.602 0 0 0-.36-1.085v-.001H2.032a.828.828 0 0 1-.827-.827V2.032c0-.456.371-.827.827-.827" mask="url(#b)"/>
        </g>
        <path fill="#FFF" d="M1.205 28.269V16.486H0v11.783c0 1.12.912 2.032 2.032 2.032h10.353c1.121 0 2.033-.911 2.033-2.032v-2.087c.465.248.988.384 1.526.384a3.257 3.257 0 0 0 3.253-3.253 3.257 3.257 0 0 0-3.253-3.253c-.538 0-1.061.137-1.526.384v-3.958h-1.205v5.248a.6.6 0 0 0 1.086.359c.39-.526.99-.828 1.645-.828a2.05 2.05 0 0 1 2.048 2.048 2.05 2.05 0 0 1-2.048 2.048 2.032 2.032 0 0 1-1.645-.828.602.602 0 0 0-1.086.36v3.376a.828.828 0 0 1-.828.827H2.032a.828.828 0 0 1-.827-.827"/>
        <g transform="translate(16.145 11.084)">
            <mask id="d" fill="#fff">
                <use xlink:href="#c"/>
            </mask>
            <path fill="#FFF" d="M11.823 18.012H.04v1.205h11.783c1.12 0 2.032-.912 2.032-2.032V6.83c0-1.12-.911-2.032-2.032-2.032H9.737c.247-.465.383-.989.383-1.526A3.257 3.257 0 0 0 6.867.02a3.257 3.257 0 0 0-3.253 3.253c0 .537.137 1.06.384 1.526H.04v1.205h5.248a.6.6 0 0 0 .36-1.086 2.032 2.032 0 0 1-.829-1.645 2.05 2.05 0 0 1 2.048-2.048 2.05 2.05 0 0 1 2.049 2.048c0 .654-.302 1.254-.828 1.645a.602.602 0 0 0 .36 1.085v.001h3.375c.456 0 .828.371.828.827v10.354a.828.828 0 0 1-.828.827" mask="url(#d)"/>
        </g>
        <g transform="translate(10.783 .06)">
            <mask id="f" fill="#fff">
                <use xlink:href="#e"/>
            </mask>
            <path fill="#FFF" d="M18.012 2.032v11.783h1.205V2.032C19.217.912 18.305 0 17.185 0H6.83C5.711 0 4.8.912 4.8 2.032V4.12a3.254 3.254 0 0 0-1.526-.384A3.257 3.257 0 0 0 .02 6.988a3.257 3.257 0 0 0 3.253 3.253c.537 0 1.06-.136 1.526-.384v3.958h1.205V8.568a.6.6 0 0 0-1.086-.36c-.391.526-.99.828-1.645.828a2.05 2.05 0 0 1-2.048-2.048A2.05 2.05 0 0 1 3.273 4.94c.654 0 1.254.302 1.645.828a.603.603 0 0 0 1.085-.36V2.032c0-.456.372-.827.828-.827h10.354c.456 0 .827.371.827.827" mask="url(#f)"/>
        </g>
    </g>
</svg>
