<svg xmlns="http://www.w3.org/2000/svg" width="30" height="30" viewBox="0 0 30 30">
    <g fill="#FFF" fill-rule="nonzero">
        <path d="M27.64 17.19a7.567 7.567 0 0 0-2.777-1.721v-1.503h.917c2.163 0 3.917-1.716 3.917-3.832 0-2.116-1.754-3.831-3.917-3.831h-.917V.652a.65.65 0 0 0-.333-.565.68.68 0 0 0-.667 0c-.09.05-8.92 4.98-13 4.98H2.147C.962 5.069.002 6.007 0 7.167v7.239c0 1.103.875 2.018 2 2.093l3.163 9.633a1.62 1.62 0 0 0 1.54 1.203c.077.006.154.006.23 0A8.583 8.583 0 0 0 10.6 26.24c.21-.104.402-.24.567-.405a.656.656 0 0 0 .07-.081c.53-.719.53-1.688 0-2.407-.39-.613-1.45-3.1-1.51-6.848h1.14c1.306 0 3.13.45 5.42 1.337-2.535 3.135-2.083 7.67 1.022 10.267 3.105 2.598 7.754 2.33 10.526-.606a7.322 7.322 0 0 0-.215-10.313l.02.007zM25.78 7.6c1.427 0 2.583 1.132 2.583 2.528 0 1.395-1.156 2.527-2.583 2.527h-.917V7.6h.917zM1.333 14.406v-7.24c0-.439.364-.795.814-.795h8.066v8.83H2.147a.805.805 0 0 1-.814-.795zm8.797 9.668l.02.03a.746.746 0 0 1 .033.86 1.186 1.186 0 0 1-.23.134l-.073.043c-.26.17-1.25.733-3.097.906h-.046c-.117.016-.237-.091-.29-.28l-3.04-9.261h5c.053 3.655 1.046 6.512 1.723 7.568zm1.413-8.856v-8.88c3.694-.348 9.63-3.326 12-4.565v13.37a7.716 7.716 0 0 0-6.236 1.705c-2.334-.932-4.254-1.47-5.75-1.598l-.014-.032zm15.154 11.57c-2.449 2.39-6.415 2.388-8.86-.006a6.037 6.037 0 0 1 0-8.667c2.445-2.394 6.411-2.396 8.86-.005a6.05 6.05 0 0 1 0 8.677z"/>
        <path d="M24.943 18.913l-2.5 2.446-2.5-2.446-.943.923 2.5 2.446-2.5 2.445.943.923 2.5-2.446 2.5 2.446.944-.923-2.5-2.445 2.5-2.446z"/>
    </g>
</svg>
