<svg xmlns="http://www.w3.org/2000/svg" xmlns:xlink="http://www.w3.org/1999/xlink" width="26" height="32" viewBox="0 0 26 32">
    <defs>
        <path id="a" d="M0 .025h25.99v31.91H0z"/>
    </defs>
    <g fill="none" fill-rule="evenodd">
        <path fill="#FFF" d="M23.22 11.092h-.535V9.63c0-2.502-1.007-4.852-2.827-6.606C18.025 1.26 15.586.29 13 .29s-5.024.97-6.857 2.735c-1.832 1.766-2.84 4.104-2.84 6.606v1.46H2.77c-1.395 0-2.536 1.1-2.536 2.444v5.916c0 6.78 5.728 12.298 12.755 12.298 7.038 0 12.767-5.518 12.767-12.298v-5.916a2.39 2.39 0 0 0-.74-1.718 2.587 2.587 0 0 0-1.797-.725zM4.262 9.63c0-2.245.91-4.35 2.549-5.94 1.65-1.59 3.834-2.466 6.165-2.466 2.33 0 4.526.877 6.164 2.467C20.78 5.27 21.69 7.374 21.69 9.63v1.46h-2.597v-1.46c0-3.25-2.743-5.893-6.116-5.893-3.374 0-6.117 2.643-6.117 5.893v1.46H4.25l.013-1.46zm3.592 1.46v-1.46c0-2.724 2.306-4.946 5.134-4.946 2.827 0 5.133 2.222 5.133 4.946v1.46H7.855zm16.918 8.36c0 6.266-5.292 11.363-11.796 11.363-6.493 0-11.784-5.097-11.784-11.363v-5.916c0-.83.691-1.496 1.553-1.496H23.195c.412 0 .8.152 1.104.444.291.28.461.655.461 1.052l.013 5.916z"/>
        <g transform="translate(0 .039)">
            <mask id="b" fill="#fff">
                <use xlink:href="#a"/>
            </mask>
            <path fill="#FFF" d="M8.09 10.828h9.798V9.592c0-2.603-2.198-4.72-4.9-4.72-2.701 0-4.899 2.117-4.899 4.72v1.236zm10.266.45H7.621V9.592c0-2.851 2.408-5.17 5.368-5.17 2.96 0 5.367 2.319 5.367 5.17v1.686zm.97-.45h2.13V9.592c0-2.187-.88-4.24-2.48-5.78-1.595-1.548-3.726-2.4-6-2.4a8.597 8.597 0 0 0-6 2.4c-1.598 1.552-2.48 3.605-2.48 5.78v.001l-.01 1.235h2.14V9.592c0-3.374 2.849-6.118 6.35-6.118 3.502 0 6.35 2.744 6.35 6.118v1.236zm2.598.45h-3.065V9.592c0-3.125-2.639-5.667-5.882-5.667-3.244 0-5.883 2.542-5.883 5.667v1.686H4.015L4.03 9.59c0-2.294.93-4.459 2.616-6.096A9.072 9.072 0 0 1 12.977.96c2.399 0 4.647.9 6.33 2.533 1.688 1.625 2.617 3.79 2.617 6.098v1.686zm-19.178.947c-.728 0-1.32.57-1.32 1.271v5.916c0 6.141 5.182 11.138 11.55 11.138 6.376 0 11.563-4.997 11.563-11.138l-.013-5.915c0-.333-.139-.65-.392-.894a1.329 1.329 0 0 0-.94-.378H2.747zM12.976 31C6.35 31 .96 25.802.96 19.412v-5.916c0-.95.801-1.722 1.787-1.722h20.449c.477 0 .928.182 1.27.51.341.33.53.76.53 1.212l.011 5.916c0 6.39-5.396 11.588-12.03 11.588zM2.77 11.278c-1.27 0-2.302.995-2.302 2.218v5.916c0 6.657 5.617 12.073 12.52 12.073 6.911 0 12.534-5.416 12.534-12.073v-5.916a2.18 2.18 0 0 0-.672-1.559 2.34 2.34 0 0 0-1.63-.659h-.769V9.592c0-2.443-.98-4.732-2.759-6.446-1.787-1.722-4.163-2.67-6.691-2.67-2.528 0-4.904.948-6.692 2.67-1.787 1.721-2.77 4.01-2.77 6.446v1.686H2.77zM12.99 31.936C5.827 31.936 0 26.317 0 19.412v-5.916c0-1.471 1.243-2.668 2.77-2.668h.3V9.592c0-2.556 1.033-4.958 2.909-6.765C7.854 1.02 10.348.025 13 .025c2.653 0 5.146.995 7.022 2.802 1.868 1.8 2.896 4.201 2.896 6.765v1.236h.3c.736 0 1.432.28 1.962.79.514.495.808 1.18.808 1.878v5.916c0 6.905-5.832 12.524-13 12.524z" mask="url(#b)"/>
        </g>
        <path fill="#FFF" d="M12.976 15.593c-1.735 0-3.203 1.297-3.349 2.97-.012.093-.012.186-.012.268 0 .9.388 1.765 1.08 2.373.133.117.267.222.4.304l.146.094-.825 3.18c0 .023-.012.035-.012.058 0 .059.024.117.072.164.025.023.061.047.098.082.012.011.036.023.048.035.024.011.036.023.049.035.194.128.46.234.788.315l.146.035c.837.188 1.93.188 2.78 0l.06-.011c.024-.012.048-.012.085-.024.315-.081.582-.187.776-.315.013-.012.025-.024.049-.024l.06-.046c.025-.024.061-.047.098-.082a.227.227 0 0 0 .073-.164c0-.023 0-.047-.013-.058l-.825-3.18.146-.094a3.185 3.185 0 0 0 1.468-2.677c0-.444-.097-.877-.279-1.286-.546-1.18-1.76-1.952-3.107-1.952m.013 10.521a7.487 7.487 0 0 1-1.493-.152l-.158-.035a3.253 3.253 0 0 1-.934-.374c-.025-.011-.037-.023-.061-.035-.024-.012-.049-.035-.073-.047-.036-.035-.097-.07-.145-.117a.74.74 0 0 1-.219-.49c0-.059.012-.117.024-.176l.753-2.864a3.631 3.631 0 0 1-1.541-3.273c.157-1.906 1.844-3.39 3.834-3.39 1.542 0 2.925.876 3.532 2.22.206.468.316.97.316 1.473 0 1.181-.57 2.268-1.542 2.97l.74 2.864a.869.869 0 0 1 .025.175.688.688 0 0 1-.219.491 1.198 1.198 0 0 1-.133.117l-.073.047c-.024.012-.036.024-.06.047-.243.164-.559.28-.935.374-.024.012-.049.012-.073.012l-.073.011c-.46.094-.97.152-1.492.152"/>
        <path fill="#FFF" d="M15.015 21.701l.008.029.119-.086a3.446 3.446 0 0 0 1.36-2.02 3.42 3.42 0 0 1-1.478 2.071l-.009.006zm-4.567 3.616zm.37-.337c.168.107.403.2.7.273l.144.035c.802.179 1.852.179 2.67-.001l.045-.009c.024-.008.045-.013.06-.016l.019-.004.013-.004c.293-.076.525-.168.69-.275a.3.3 0 0 1 .089-.053l.014-.01a.915.915 0 0 1 .045-.038c.012-.01.026-.02.04-.034h.001l-.867-3.342.283-.181a2.958 2.958 0 0 0 1.364-2.49c0-.406-.087-.809-.26-1.197-.51-1.102-1.645-1.816-2.891-1.816-1.613 0-2.982 1.214-3.117 2.763v.01c-.011.079-.011.165-.011.24 0 .842.366 1.646 1.004 2.207.14.122.26.214.368.28l.287.184-.86 3.317a.264.264 0 0 1-.005.026l.02.017c.018.013.04.031.065.054l.027.018c.028.016.049.033.064.046zm-.363.34a.52.52 0 0 1 .048.028l.028.016c.225.141.524.26.866.345l.152.034a7.191 7.191 0 0 0 2.884-.001l.135-.021c.368-.092.644-.2.843-.33a.412.412 0 0 1 .09-.067l.058-.036c.033-.025.062-.052.104-.093a.497.497 0 0 0 .13-.206.463.463 0 0 1-.115.174c-.028.027-.055.049-.075.065-.008.006-.016.011-.022.017l-.02.017-.124.096h-.023a2.902 2.902 0 0 1-.876.344l-.016.008-.092.017a7.204 7.204 0 0 1-2.878-.001l-.15-.036c-.36-.09-.65-.207-.864-.349l-.03-.024-.025-.011-.016-.016a.369.369 0 0 1-.059-.045c-.014-.014-.028-.024-.04-.034a.765.765 0 0 1-.057-.048.447.447 0 0 1-.141-.323c0-.035.006-.063.012-.082v-.004l.792-3.053-.008-.005a3.18 3.18 0 0 1-.428-.325 3.386 3.386 0 0 1-1.144-2.832c.07-.795.423-1.513.958-2.063a3.372 3.372 0 0 0-.977 2.092l-.001.007c-.01.093-.01.19-.01.291a3.421 3.421 0 0 0 1.449 2.77l.137.089-.791 3.013a.75.75 0 0 0-.019.12.52.52 0 0 0 .15.337c.015.015.037.03.06.047.02.015.04.03.061.048a.643.643 0 0 1 .036.025l.008.005zm2.534 1.02a7.685 7.685 0 0 1-1.543-.157l-.16-.036a3.5 3.5 0 0 1-1.042-.424l-.007-.004a.452.452 0 0 1-.07-.044l-.008-.005-.027-.013-.027-.026a.618.618 0 0 0-.04-.03c-.03-.023-.069-.051-.106-.087a.965.965 0 0 1-.286-.636v-.014c0-.081.014-.155.028-.22l.003-.011.713-2.717a3.868 3.868 0 0 1-1.522-3.05c0-.108 0-.22.014-.337.168-2.016 1.955-3.594 4.067-3.594 1.63 0 3.1.925 3.747 2.357.219.497.334 1.037.334 1.563 0 1.2-.548 2.306-1.511 3.057l.706 2.732c.013.065.029.139.029.22a.913.913 0 0 1-.287.65 1.4 1.4 0 0 1-.159.138l-.01.007-.089.056-.01.01-.014.013-.016.012c-.248.166-.564.295-.993.403a.385.385 0 0 1-.129.023l-.05.008a7.77 7.77 0 0 1-1.535.156z"/>
    </g>
</svg>
