<svg xmlns="http://www.w3.org/2000/svg" width="30" height="30" viewBox="0 0 30 30">
    <path fill="#FFF" fill-rule="nonzero" d="M27.745 12.162v-.218C27.745 5.348 22.005 0 14.926 0 7.847 0 2.108 5.348 2.108 11.944v.218C.933 12.645.172 13.727.166 14.924v3.409c.006 1.422 1.072 2.65 2.564 2.953l1.599.316c.646.13 1.32-.02 1.835-.408.514-.388.811-.972.81-1.588v-7.677c0-2.648 1.515-5.095 3.977-6.42a8.462 8.462 0 0 1 7.954 0c2.462 1.325 3.978 3.772 3.978 6.42v8.883c.002 2.757-2.26 5.057-5.208 5.294-.403-1.279-1.752-2.087-3.167-1.897-1.415.189-2.466 1.319-2.466 2.65 0 1.333 1.05 2.463 2.466 2.652 1.415.19 2.764-.619 3.167-1.897 3.533-.223 6.388-2.771 6.781-6.05.196.055.4.084.605.087.155 0 .309-.015.46-.046l1.599-.316c1.492-.303 2.558-1.53 2.564-2.953v-3.412c-.006-1.196-.765-2.278-1.94-2.762zm-12.819 15.89c-.691 0-1.252-.523-1.252-1.168 0-.645.56-1.167 1.252-1.167s1.253.522 1.253 1.167-.56 1.167-1.253 1.167zm-9.571-8.446a.506.506 0 0 1-.21.41.58.58 0 0 1-.473.105l-1.6-.316c-.753-.144-1.294-.761-1.294-1.478v-3.403c0-.716.541-1.334 1.295-1.478l2.282-.455v6.615zm9.571-16.59c-5.086.006-9.282 3.713-9.558 8.446l-1.638.301C3.834 6.071 8.815 1.508 14.925 1.508S26.015 6.07 26.12 11.763l-1.638-.325c-.29-4.722-4.48-8.415-9.556-8.422zm13.14 15.317c0 .717-.542 1.334-1.296 1.478l-1.599.32a.597.597 0 0 1-.47-.114.514.514 0 0 1-.203-.411V12.97l2.282.455c.754.144 1.295.762 1.295 1.478l-.01 3.43z"/>
</svg>
