<?xml version="1.0" encoding="UTF-8" standalone="no"?>
<svg width="37px" height="41px" viewBox="0 0 37 41" version="1.1" xmlns="http://www.w3.org/2000/svg" xmlns:xlink="http://www.w3.org/1999/xlink">
    <!-- Generator: Sketch 48.2 (47327) - http://www.bohemiancoding.com/sketch -->
    <title>Group</title>
    <desc>Created with Sketch.</desc>
    <defs>
        <polygon id="path-1" points="0 0 36.1764706 0 36.1764706 41 0 41"></polygon>
    </defs>
    <g id="header-copy-5" stroke="none" stroke-width="1" fill="none" fill-rule="evenodd" transform="translate(-15.000000, -15.000000)">
        <g id="Group" transform="translate(15.000000, 15.000000)">
            <g id="Group-3">
                <mask id="mask-2" fill="white">
                    <use xlink:href="#path-1"></use>
                </mask>
                <g id="Clip-2"></g>
                <path d="M33.7647059,27.1720287 C32.6616004,27.4037202 31.8335823,28.3770985 31.8335823,29.542959 C31.8335823,29.7842472 31.8699665,30.0167612 31.9358442,30.2366625 L20.2352637,36.9568117 C19.7950689,36.5241382 19.1905936,36.2568019 18.5229971,36.2568019 C17.8432724,36.2568019 17.2291497,36.5342833 16.7870255,36.9803922 L4.93842716,30.1755179 C4.99327923,29.9737132 5.0252533,29.7623119 5.0252533,29.542959 C5.0252533,28.4206949 4.25704869,27.4788485 3.21568627,27.2030123 L3.21568627,13.6075216 C4.25704869,13.3316854 5.0252533,12.3901132 5.0252533,11.2675749 C5.0252533,11.0537059 4.99465742,10.84724 4.9422861,10.6498224 L16.4868552,4.01960784 C16.9223641,4.67794063 17.671274,5.11363027 18.5229971,5.11363027 C19.3631433,5.11363027 20.1037841,4.69082762 20.5420494,4.04730114 L31.9322609,10.588952 C31.8691396,10.8044662 31.8335823,11.0317706 31.8335823,11.2675749 C31.8335823,12.4337096 32.6616004,13.407088 33.7647059,13.6390536 L33.7647059,27.1720287 Z M36.1764706,11.0457136 C36.1764706,9.70160928 35.0968446,8.61184701 33.7646331,8.61184701 C33.0679771,8.61184701 32.4422414,8.91188259 32.0019897,9.38863638 L20.5731753,2.72977328 C20.5849044,2.63260579 20.5928147,2.53406199 20.5928147,2.43386663 C20.5928147,1.08948701 19.512916,0 18.1809773,0 C16.8490386,0 15.7694126,1.08948701 15.7694126,2.43386663 C15.7694126,2.52195047 15.7745953,2.60920852 15.7835967,2.69509027 L4.21594204,9.43460513 C3.77432648,8.93087567 3.13058792,8.61184701 2.41183744,8.61184701 C1.07989872,8.61184701 0,9.70160928 0,11.0457136 C0,12.2197061 0.823767144,13.1990883 1.91975932,13.4283815 L1.91975932,27.0098087 C0.823767144,27.239102 0,28.2187594 0,29.3924766 C0,30.7368562 1.07989872,31.8263432 2.41183744,31.8263432 C3.12540527,31.8263432 3.76450674,31.511994 4.2061223,31.0151461 L15.8858857,37.8198981 C15.8108737,38.0552471 15.7694126,38.3057355 15.7694126,38.5664086 C15.7694126,39.9102377 16.8490386,41 18.1809773,41 C19.512916,41 20.5928147,39.9102377 20.5928147,38.5664086 C20.5928147,38.2938993 20.5464437,38.0329509 20.4648853,37.7885182 L32.0120822,31.0611149 C32.4517884,31.5312624 33.0734325,31.8263432 33.7646331,31.8263432 C35.0968446,31.8263432 36.1764706,30.7368562 36.1764706,29.3924766 C36.1764706,28.2625261 35.4121674,27.3153495 34.3772759,27.0409133 L34.3772759,13.3972769 C35.4121674,13.1233912 36.1764706,12.1759394 36.1764706,11.0457136 Z" id="Fill-1" fill="#E1001C" mask="url(#mask-2)"></path>
            </g>
            <path d="M14.4705882,21.1024332 L12.0586799,22.5098039 L9.64705882,21.1024332 L9.64705882,18.2891431 L12.0586799,16.8823529 L14.4705882,18.2891431 L14.4705882,21.1024332 Z M8.84313725,17.8870487 L8.84313725,21.5042833 L12.0586824,23.3137255 L15.2745098,21.5042833 L15.2745098,17.8870487 L12.0586824,16.0784314 L8.84313725,17.8870487 Z" id="Fill-4" fill="#FFFFFF"></path>
            <path d="M16.8823529,20.9019608 L28.9411765,20.9019608 L28.9411765,20.0980392 L16.8823529,20.0980392 L16.8823529,20.9019608 Z M16.0784314,21.9070661 L12.0588235,24.1176471 L8.03921569,21.9070661 L8.03921569,17.4850907 L12.0588235,15.2745098 L16.0784314,17.4850907 L16.0784314,21.9070661 Z M28.9306566,19.1993126 L27.756775,19.1993126 L27.756775,16.3743947 L26.9423336,16.3743947 L26.9423336,19.1993126 L25.6742483,19.1993126 L25.6742483,15.5851727 L24.8598068,15.5851727 L24.8598068,19.1993126 L16.5318716,19.1993126 L16.5318716,17.0832673 L11.8835829,14.4705882 L7.23529412,17.0832673 L7.23529412,22.3088896 L11.8835829,24.9215686 L16.5318716,22.3088896 L16.5318716,21.4025794 L29.745098,21.4025794 L29.745098,15.5814724 L28.9306566,15.5814724 L28.9306566,19.1993126 Z" id="Fill-6" fill="#FFFFFF"></path>
        </g>
    </g>
</svg>