<?xml version="1.0" encoding="UTF-8" standalone="no"?>
<svg width="255px" height="52px" viewBox="0 0 255 52" version="1.1" xmlns="http://www.w3.org/2000/svg" xmlns:xlink="http://www.w3.org/1999/xlink">
    <!-- Generator: Sketch 48.2 (47327) - http://www.bohemiancoding.com/sketch -->
    <title>Group</title>
    <desc>Created with Sketch.</desc>
    <defs>
        <polygon id="path-1" points="0 0.0175943709 45.2281213 0.0175943709 45.2281213 51.4030586 0 51.4030586"></polygon>
        <polygon id="path-3" points="0 51.4031621 255 51.4031621 255 0 0 0"></polygon>
    </defs>
    <g id="header" stroke="none" stroke-width="1" fill="none" fill-rule="evenodd" transform="translate(-30.000000, -28.000000)">
        <g id="Group" transform="translate(30.000000, 28.000000)">
            <g id="Group-3">
                <mask id="mask-2" fill="white">
                    <use xlink:href="#path-1"></use>
                </mask>
                <g id="Clip-2"></g>
                <path d="M41.5870451,33.8721654 C40.2222809,34.16368 39.1978552,35.3883862 39.1978552,36.8552737 C39.1978552,37.1588629 39.2428699,37.4514124 39.3243738,37.7280925 L24.8483931,46.1833952 C24.3037833,45.6390047 23.5559253,45.3026417 22.7299736,45.3026417 C21.8890169,45.3026417 21.1292232,45.6517692 20.5822262,46.2130641 L5.92311748,37.6511603 C5.99098056,37.3972493 6.03053895,37.1312639 6.03053895,36.8552737 C6.03053895,35.4432392 5.08011471,34.2582066 3.79173913,33.911149 L3.79173913,16.8052806 C5.08011471,16.458223 6.03053895,15.2735354 6.03053895,13.8611559 C6.03053895,13.5920655 5.99268567,13.3322898 5.92789176,13.0838987 L20.2108549,4.74175196 C20.7496673,5.57006734 21.6762201,6.11825274 22.7299736,6.11825274 C23.7694041,6.11825274 24.6857263,5.58628176 25.227949,4.77659571 L39.3199406,13.0073114 C39.2418469,13.2784717 39.1978552,13.5644665 39.1978552,13.8611559 C39.1978552,15.3283884 40.2222809,16.5530946 41.5870451,16.8449542 L41.5870451,33.8721654 Z M45.2281213,13.8611559 C45.2281213,12.1765811 43.8783621,10.810775 42.2128178,10.810775 C41.3418513,10.810775 40.5595502,11.1868115 40.0091431,11.7843301 L25.7207236,3.43873355 C25.7353875,3.3169529 25.7452771,3.19344732 25.7452771,3.06787181 C25.7452771,1.38295205 24.3951768,0.0174908746 22.7299736,0.0174908746 C21.0647703,0.0174908746 19.715011,1.38295205 19.715011,3.06787181 C19.715011,3.17826786 19.7214904,3.28762895 19.7327441,3.3952651 L5.27074519,11.8419431 C4.71863295,11.2106157 3.91382448,10.810775 3.01523537,10.810775 C1.3500321,10.810775 -6.82041071e-05,12.1765811 -6.82041071e-05,13.8611559 C-6.82041071e-05,15.3325283 1.02981381,16.5599944 2.40003432,16.8473691 L2.40003432,33.8690605 C1.02981381,34.1564352 -6.82041071e-05,35.3842463 -6.82041071e-05,36.8552737 C-6.82041071e-05,38.5401935 1.3500321,39.9056547 3.01523537,39.9056547 C3.90734509,39.9056547 4.70635621,39.5116787 5.25846845,38.888976 L19.8606268,47.4174161 C19.7668461,47.7123805 19.715011,48.0263193 19.715011,48.3530226 C19.715011,50.0372524 21.0647703,51.4030586 22.7299736,51.4030586 C24.3951768,51.4030586 25.7452771,50.0372524 25.7452771,48.3530226 C25.7452771,48.0114848 25.6873036,47.6844365 25.5853385,47.3780875 L40.0217608,38.9465889 C40.5714859,39.5358279 41.3486717,39.9056547 42.2128178,39.9056547 C43.8783621,39.9056547 45.2281213,38.5401935 45.2281213,36.8552737 C45.2281213,35.4390994 44.2725818,34.2519968 42.9787499,33.9080441 L42.9787499,16.8083855 C44.2725818,16.4651228 45.2281213,15.2776752 45.2281213,13.8611559 Z" id="Fill-1" fill="#E1001C" mask="url(#mask-2)"></path>
            </g>
            <path d="M18.0886396,26.3636424 L15.1184001,28.0348154 L12.1485146,26.3636424 L12.1485146,23.02302 L15.1184001,21.3525364 L18.0886396,23.02302 L18.0886396,26.3636424 Z M11.0869565,22.4256308 L11.0869565,26.9606868 L15.1184001,29.229249 L19.1501976,26.9606868 L19.1501976,22.4256308 L15.1184001,20.1581028 L11.0869565,22.4256308 Z" id="Fill-4" fill="#FFFFFF"></path>
            <mask id="mask-4" fill="white">
                <use xlink:href="#path-3"></use>
            </mask>
            <g id="Clip-7"></g>
            <path d="M20.726597,25.839062 L36.2713958,25.839062 L36.2713958,25.0649778 L20.726597,25.0649778 L20.726597,25.839062 Z M19.7055027,27.3955147 L14.8988716,30.0968565 L10.0922405,27.3955147 L10.0922405,21.9918371 L14.8988716,19.2904953 L19.7055027,21.9918371 L19.7055027,27.3955147 Z M36.2713958,24.0708629 L34.7996586,24.0708629 L34.7996586,20.5291626 L33.7785644,20.5291626 L33.7785644,24.0708629 L32.1887206,24.0708629 L32.1887206,19.5396868 L31.1676263,19.5396868 L31.1676263,24.0708629 L20.726597,24.0708629 L20.726597,21.4179013 L14.8988716,18.1422925 L9.07114625,21.4179013 L9.07114625,27.9694504 L14.8988716,31.2450593 L20.726597,27.9694504 L20.726597,26.833177 L37.2924901,26.833177 L37.2924901,19.5350476 L36.2713958,19.5350476 L36.2713958,24.0708629 Z" id="Fill-6" fill="#FFFFFF" mask="url(#mask-4)"></path>
            <path d="M60.5325461,23.9141027 C59.6318555,23.5857376 58.9630912,23.2852683 58.5259235,23.0140394 C58.0887559,22.7424743 57.7784229,22.4436856 57.5942656,22.1186814 C57.4101083,21.7936772 57.3181944,21.3762467 57.3181944,20.8663901 C57.3181944,20.1757142 57.5679103,19.635945 58.0676717,19.2467466 C58.5667742,18.8582204 59.260576,18.6632851 60.1477595,18.6632851 C61.2718107,18.6632851 62.428806,18.9187176 63.6184159,19.427902 L64.1409087,17.9393357 C62.9381212,17.4029275 61.6203589,17.1343874 60.1872924,17.1343874 C58.8135252,17.1343874 57.7092403,17.4698105 56.8744379,18.1406568 C56.0396355,18.810831 55.6225637,19.7129109 55.6225637,20.8465605 C55.6225637,21.9257626 55.9098359,22.8006188 56.4850392,23.4718012 C57.0602424,24.1419754 58.0182556,24.7220759 59.3590787,25.2117669 C60.3187391,25.5602977 61.0336252,25.8721942 61.5034074,26.1474563 C61.9735192,26.4223823 62.3088897,26.7221794 62.5091895,27.0471836 C62.7094894,27.37286 62.8099688,27.7902904 62.8099688,28.2998109 C62.8099688,29.0711498 62.5273088,29.6724243 61.9619887,30.1049791 C61.3966687,30.5375338 60.5552775,30.7543153 59.4381445,30.7543153 C58.7545553,30.7543153 58.0640478,30.6800382 57.3676105,30.5328284 C56.6705142,30.3852826 56.0264579,30.1842976 55.4347826,29.9288651 L55.4347826,31.5787572 C56.3552396,32.0284527 57.6700369,32.2529644 59.3788452,32.2529644 C60.9562067,32.2529644 62.2051159,31.8903175 63.1252434,31.1663682 C64.0457004,30.4424188 64.5059289,29.4327884 64.5059289,28.1388213 C64.5059289,27.1325518 64.2212922,26.3148318 63.6530072,25.684653 C63.0843928,25.0544742 62.0440194,24.4642908 60.5325461,23.9141027" id="Fill-8" fill="#FFFFFF" mask="url(#mask-4)"></path>
            <polygon id="Fill-9" fill="#FFFFFF" mask="url(#mask-4)" points="67.5296443 32.2529644 75.5928854 32.2529644 75.5928854 30.6811217 69.2116487 30.6811217 69.2116487 25.1176484 75.2070954 25.1176484 75.2070954 23.5665378 69.2116487 23.5665378 69.2116487 18.6962095 75.5928854 18.6962095 75.5928854 17.1343874 67.5296443 17.1343874"></polygon>
            <path d="M85.6536361,18.6632851 C86.7630017,18.6632851 87.8723672,18.9251034 88.9820678,19.4484038 L89.7035573,17.9793311 C88.5539973,17.4160353 87.2108343,17.1343874 85.6740683,17.1343874 C84.2304193,17.1343874 82.9756839,17.4429229 81.9095274,18.0599939 C80.8437057,18.677065 80.0284292,19.5552821 79.4636979,20.6956537 C78.8989665,21.835353 78.6166008,23.1632657 78.6166008,24.6787196 C78.6166008,27.0992783 79.2031041,28.9666241 80.3757759,30.2814291 C81.5487826,31.595898 83.2145057,32.2529644 85.3729452,32.2529644 C86.8631527,32.2529644 88.1165482,32.0617262 89.1324618,31.6792497 L89.1324618,30.1806005 C87.8224592,30.5492971 86.6561516,30.7338135 85.6335389,30.7338135 C83.9698255,30.7338135 82.687959,30.2095047 81.7892791,29.1595428 C80.8902643,28.1099171 80.4407568,26.6233673 80.4407568,24.6985493 C80.4407568,22.8278426 80.9070119,21.3540645 81.8391872,20.2782232 C82.7716973,19.2017098 84.0428454,18.6632851 85.6536361,18.6632851" id="Fill-10" fill="#FFFFFF" mask="url(#mask-4)"></path>
            <path d="M102.129783,26.8464361 C102.129783,28.0974265 101.799382,29.0579963 101.139243,29.7278045 C100.478442,30.3982944 99.5372311,30.7330281 98.31561,30.7330281 C97.0337355,30.7330281 96.0627288,30.3996579 95.4025899,29.7332584 C94.7417889,29.0668589 94.4117194,28.1114022 94.4117194,26.8665474 L94.4117194,17.1343874 L92.7272727,17.1343874 L92.7272727,26.7438344 C92.7272727,28.4584071 93.204334,29.8045001 94.1591186,30.7838176 C95.1135722,31.7631352 96.4626524,32.2529644 98.2060282,32.2529644 C99.9500662,32.2529644 101.320665,31.7672256 102.318157,30.7943846 C103.315318,29.8218844 103.814229,28.4856767 103.814229,26.7850796 L103.814229,17.1343874 L102.129783,17.1343874 L102.129783,26.8464361 Z" id="Fill-11" fill="#FFFFFF" mask="url(#mask-4)"></path>
            <path d="M111.789386,24.4561145 L109.509452,24.4561145 L109.509452,18.6751671 L111.672005,18.6751671 C112.904993,18.6751671 113.800226,18.895624 114.35803,19.337229 C114.916161,19.7784884 115.194736,20.4986016 115.194736,21.4979142 C115.194736,22.4840962 114.920738,23.2239054 114.372743,23.7163053 C113.825076,24.2097418 112.963847,24.4561145 111.789386,24.4561145 M116.917192,21.405654 C116.917192,19.9782127 116.497695,18.9097913 115.659681,18.1993533 C114.821014,17.4892608 113.524921,17.1343874 111.769768,17.1343874 L107.84585,17.1343874 L107.84585,32.2529644 L109.509452,32.2529644 L109.509452,25.9657953 L112.493997,25.9657953 L115.957874,32.2529644 L117.924901,32.2529644 L114.040219,25.4588826 C115.957874,24.755701 116.917192,23.4046248 116.917192,21.405654" id="Fill-12" fill="#FFFFFF" mask="url(#mask-4)"></path>
            <polygon id="Fill-13" fill="#FFFFFF" mask="url(#mask-4)" points="120.948617 32.2529644 129.011858 32.2529644 129.011858 30.6811217 122.630621 30.6811217 122.630621 25.1176484 128.626068 25.1176484 128.626068 23.5665378 122.630621 23.5665378 122.630621 18.6962095 129.011858 18.6962095 129.011858 17.1343874 120.948617 17.1343874"></polygon>
            <path d="M142.172862,23.9141027 C141.272172,23.5857376 140.603407,23.2852683 140.16624,23.0140394 C139.729072,22.7424743 139.418739,22.4436856 139.234582,22.1186814 C139.050425,21.7936772 138.958511,21.3762467 138.958511,20.8663901 C138.958511,20.1757142 139.208227,19.635945 139.707988,19.2467466 C140.20709,18.8582204 140.900892,18.6632851 141.788076,18.6632851 C142.912127,18.6632851 144.069122,18.9187176 145.258732,19.427902 L145.781225,17.9393357 C144.578437,17.4029275 143.260675,17.1343874 141.827609,17.1343874 C140.453841,17.1343874 139.349557,17.4698105 138.514754,18.1406568 C137.679952,18.810831 137.26288,19.7129109 137.26288,20.8465605 C137.26288,21.9257626 137.550152,22.8006188 138.125355,23.4718012 C138.700559,24.1419754 139.658572,24.7220759 140.999395,25.2117669 C141.959055,25.5602977 142.673941,25.8721942 143.143724,26.1474563 C143.613835,26.4223823 143.949206,26.7221794 144.149506,27.0471836 C144.349806,27.37286 144.450285,27.7902904 144.450285,28.2998109 C144.450285,29.0711498 144.167625,29.6724243 143.602305,30.1049791 C143.036985,30.5375338 142.195594,30.7543153 141.078461,30.7543153 C140.394871,30.7543153 139.704364,30.6800382 139.007927,30.5328284 C138.31083,30.3852826 137.666774,30.1842976 137.075099,29.9288651 L137.075099,31.5787572 C137.995556,32.0284527 139.310353,32.2529644 141.019161,32.2529644 C142.596523,32.2529644 143.845432,31.8903175 144.76556,31.1663682 C145.686017,30.4424188 146.146245,29.4327884 146.146245,28.1388213 C146.146245,27.1325518 145.861608,26.3148318 145.293323,25.684653 C144.724709,25.0544742 143.684336,24.4642908 142.172862,23.9141027" id="Fill-14" fill="#FFFFFF" mask="url(#mask-4)"></path>
            <path d="M163.047269,26.4517625 C162.679544,27.8580935 162.429992,29.0505379 162.298264,30.0297865 C162.069566,28.685652 161.788732,27.4790407 161.455764,26.4106437 L158.594947,17.1343874 L156.722956,17.1343874 L153.99769,26.3277151 C153.629965,27.5343264 153.352608,28.7685806 153.16527,30.0297865 C153.013036,28.9683003 152.770434,27.7827667 152.437466,26.4728402 L150.034742,17.1343874 L148.162055,17.1343874 L152.20842,32.2529644 L153.955982,32.2529644 L156.930801,22.191305 C157.263769,21.1087411 157.506718,20.1125611 157.658952,19.2027652 C157.665903,19.340634 157.759398,19.7507851 157.940133,20.4332184 C158.120172,21.1156518 158.283181,21.6809485 158.428811,22.1291086 L161.497472,32.2529644 L163.244687,32.2529644 L167.312253,17.1343874 L165.439914,17.1343874 L163.047269,26.4517625 Z" id="Fill-15" fill="#FFFFFF" mask="url(#mask-4)"></path>
            <polygon id="Fill-16" fill="#FFFFFF" mask="url(#mask-4)" points="169.328063 32.2529644 171.343874 32.2529644 171.343874 17.1343874 169.328063 17.1343874"></polygon>
            <path d="M179.465352,23.9141027 C178.564662,23.5857376 177.895897,23.2852683 177.45873,23.0140394 C177.021562,22.7424743 176.711229,22.4436856 176.527072,22.1186814 C176.342915,21.7936772 176.251001,21.3762467 176.251001,20.8663901 C176.251001,20.1757142 176.500717,19.635945 177.000478,19.2467466 C177.49958,18.8582204 178.193382,18.6632851 179.080566,18.6632851 C180.204617,18.6632851 181.361612,18.9187176 182.551222,19.427902 L183.073715,17.9393357 C181.870927,17.4029275 180.553165,17.1343874 179.120099,17.1343874 C177.746331,17.1343874 176.642047,17.4698105 175.807244,18.1406568 C174.972442,18.810831 174.55537,19.7129109 174.55537,20.8465605 C174.55537,21.9257626 174.842642,22.8006188 175.417845,23.4718012 C175.993049,24.1419754 176.951062,24.7220759 178.291885,25.2117669 C179.251545,25.5602977 179.966432,25.8721942 180.436214,26.1474563 C180.906325,26.4223823 181.241696,26.7221794 181.441996,27.0471836 C181.642296,27.37286 181.742775,27.7902904 181.742775,28.2998109 C181.742775,29.0711498 181.460115,29.6724243 180.894795,30.1049791 C180.329475,30.5375338 179.488084,30.7543153 178.370951,30.7543153 C177.687362,30.7543153 176.996854,30.6800382 176.300417,30.5328284 C175.603321,30.3852826 174.959264,30.1842976 174.367589,29.9288651 L174.367589,31.5787572 C175.288046,32.0284527 176.602843,32.2529644 178.311652,32.2529644 C179.889013,32.2529644 181.137922,31.8903175 182.05805,31.1663682 C182.978507,30.4424188 183.438735,29.4327884 183.438735,28.1388213 C183.438735,27.1325518 183.154099,26.3148318 182.585814,25.684653 C182.017199,25.0544742 180.976826,24.4642908 179.465352,23.9141027" id="Fill-17" fill="#FFFFFF" mask="url(#mask-4)"></path>
            <path d="M190.552309,23.9141027 C189.651618,23.5857376 188.982854,23.2852683 188.545686,23.0140394 C188.108519,22.7424743 187.798186,22.4436856 187.614028,22.1186814 C187.429871,21.7936772 187.337957,21.3762467 187.337957,20.8663901 C187.337957,20.1757142 187.587673,19.635945 188.087435,19.2467466 C188.586537,18.8582204 189.280339,18.6632851 190.167522,18.6632851 C191.291574,18.6632851 192.448569,18.9187176 193.638179,19.427902 L194.160672,17.9393357 C192.957884,17.4029275 191.640122,17.1343874 190.207055,17.1343874 C188.833288,17.1343874 187.729003,17.4698105 186.894201,18.1406568 C186.059398,18.810831 185.642327,19.7129109 185.642327,20.8465605 C185.642327,21.9257626 185.929599,22.8006188 186.504802,23.4718012 C187.080005,24.1419754 188.038018,24.7220759 189.378842,25.2117669 C190.338502,25.5602977 191.053388,25.8721942 191.52317,26.1474563 C191.993282,26.4223823 192.328653,26.7221794 192.528952,27.0471836 C192.729252,27.37286 192.829732,27.7902904 192.829732,28.2998109 C192.829732,29.0711498 192.547072,29.6724243 191.981752,30.1049791 C191.416432,30.5375338 190.57504,30.7543153 189.457907,30.7543153 C188.774318,30.7543153 188.083811,30.6800382 187.387373,30.5328284 C186.690277,30.3852826 186.046221,30.1842976 185.454545,29.9288651 L185.454545,31.5787572 C186.375002,32.0284527 187.6898,32.2529644 189.398608,32.2529644 C190.975969,32.2529644 192.224879,31.8903175 193.145006,31.1663682 C194.065463,30.4424188 194.525692,29.4327884 194.525692,28.1388213 C194.525692,27.1325518 194.241055,26.3148318 193.67277,25.684653 C193.104156,25.0544742 192.063782,24.4642908 190.552309,23.9141027" id="Fill-18" fill="#FFFFFF" mask="url(#mask-4)"></path>
            <path d="M212.240477,29.1870245 C211.183224,30.2174125 209.604444,30.7332976 207.503791,30.7332976 L205.358811,30.7332976 L205.358811,18.6550908 L207.918658,18.6550908 C209.873865,18.6550908 211.34737,19.1543901 212.338826,20.1536799 C213.329936,21.1540063 213.826183,22.6394651 213.826183,24.6114383 C213.826183,26.6314411 213.29773,28.1566365 212.240477,29.1870245 M208.239677,17.1343874 L203.596838,17.1343874 L203.596838,32.2529644 L207.794336,32.2529644 C210.343448,32.2529644 212.29727,31.5929909 213.655111,30.2730438 C215.012952,28.9527512 215.6917,27.0450476 215.6917,24.5492419 C215.6917,22.2120372 215.038578,20.3920997 213.733029,19.0887383 C212.426786,17.7857225 210.5959,17.1343874 208.239677,17.1343874" id="Fill-19" fill="#FFFFFF" mask="url(#mask-4)"></path>
            <path d="M220.864951,25.8886605 L222.603721,21.2226284 C222.880397,20.4335428 223.09255,19.7091533 223.240853,19.049804 C223.476653,19.9080593 223.706034,20.632793 223.928321,21.2226284 L225.64716,25.8886605 L220.864951,25.8886605 Z M222.543251,17.1343874 L216.699605,32.2529644 L218.438375,32.2529644 L220.258222,27.4640787 L226.182946,27.4640787 L228.023063,32.2529644 L229.802372,32.2529644 L223.989129,17.1343874 L222.543251,17.1343874 Z" id="Fill-20" fill="#FFFFFF" mask="url(#mask-4)"></path>
            <polygon id="Fill-21" fill="#FFFFFF" mask="url(#mask-4)" points="229.802372 18.6962095 234.485792 18.6962095 234.485792 32.2529644 236.20557 32.2529644 236.20557 18.6962095 240.889328 18.6962095 240.889328 17.1343874 229.802372 17.1343874"></polygon>
            <path d="M246.062579,25.8886605 L247.80135,21.2226284 C248.078026,20.4335428 248.290178,19.7091533 248.438482,19.049804 C248.674282,19.9080593 248.903663,20.632793 249.12595,21.2226284 L250.844789,25.8886605 L246.062579,25.8886605 Z M249.186758,17.1343874 L247.740879,17.1343874 L241.897233,32.2529644 L243.636003,32.2529644 L245.455851,27.4640787 L251.380574,27.4640787 L253.220691,32.2529644 L255,32.2529644 L249.186758,17.1343874 Z" id="Fill-22" fill="#FFFFFF" mask="url(#mask-4)"></path>
        </g>
    </g>
</svg>