<svg xmlns="http://www.w3.org/2000/svg" width="25" height="31" viewBox="0 0 25 31">
    <g fill="#FFF" fill-rule="evenodd">
        <path d="M20.88 16.808c-.034-3.83 3.18-5.692 3.326-5.78-1.82-2.617-4.64-2.974-5.632-3.003-2.369-.246-4.667 1.399-5.874 1.399-1.231 0-3.09-1.375-5.092-1.335-2.578.04-4.99 1.512-6.312 3.798-2.73 4.661-.694 11.511 1.921 15.28 1.308 1.844 2.837 3.905 4.837 3.831 1.958-.078 2.689-1.23 5.05-1.23 2.341 0 3.028 1.23 5.068 1.185 2.1-.033 3.423-1.854 4.685-3.717 1.512-2.114 2.119-4.197 2.143-4.304-.05-.016-4.08-1.534-4.12-6.124M16.448 4.859c1.017-1.3 1.713-3.066 1.52-4.859-1.473.067-3.314 1.04-4.374 2.31-.938 1.12-1.776 2.954-1.56 4.68 1.654.125 3.352-.853 4.414-2.131"/>
    </g>
</svg>
