<svg xmlns="http://www.w3.org/2000/svg" xmlns:xlink="http://www.w3.org/1999/xlink" width="21" height="30" viewBox="0 0 21 30">
    <defs>
        <path id="a" d="M20.661.388H0V30h20.661z"/>
    </defs>
    <g fill="none" fill-rule="evenodd">
        <g>
            <mask id="b" fill="#fff">
                <use xlink:href="#a"/>
            </mask>
            <path fill="#9D9D9D" d="M18.967 19.61c0 2.39-.939 4.548-2.462 6.115-1.525 1.566-3.622 2.533-5.946 2.534H10.1c-2.324 0-4.421-.968-5.946-2.534a8.745 8.745 0 0 1-2.462-6.115v-8.832c0-2.39.94-4.548 2.462-6.116C5.68 3.096 7.777 2.13 10.101 2.13h.458c2.324 0 4.42.967 5.946 2.533a8.741 8.741 0 0 1 2.462 6.116v8.832zm1.694-8.832C20.661 5.04 16.14.388 10.56.388h-.457C4.522.387 0 5.038 0 10.777v8.832C0 25.349 4.522 30 10.102 30h.457c5.58 0 10.102-4.652 10.102-10.39v-8.832z" mask="url(#b)"/>
        </g>
        <path fill="#9D9D9D" d="M10.5 9C9.672 9 9 9.545 9 10.216v3.568C9 14.455 9.672 15 10.5 15s1.5-.545 1.5-1.216v-3.568C12 9.545 11.328 9 10.5 9"/>
    </g>
</svg>
