<svg xmlns="http://www.w3.org/2000/svg" width="24" height="24" viewBox="0 0 24 24">
    <path fill="#C3C3C3" fill-rule="evenodd" d="M16.923 11.21H6.942C5.869 11.21 5 12.08 5 13.153v4.905C5 19.131 5.869 20 6.942 20h9.981c1.073 0 1.941-.87 1.941-1.942v-4.905a1.941 1.941 0 0 0-1.941-1.943zm.665 5.27h-1.543v.817c0 .326.027.607.353.607.34 0 .36-.229.36-.607v-.3h.83v.326c0 .835-.359 1.341-1.209 1.341-.77 0-1.164-.56-1.164-1.341v-1.947c0-.753.497-1.276 1.225-1.276.773 0 1.148.49 1.148 1.276v1.104zm-2.981 1.168c0 .537-.201.954-.738.954-.295 0-.541-.108-.766-.389v.334h-.814v-5.88h.814v1.893c.182-.224.429-.405.717-.405.591 0 .787.498.787 1.087v2.406zm-3.105.899h-.807v-.479c-.148.176-.303.31-.463.402-.435.25-1.032.245-1.032-.636V14.21h.807v3.325c0 .175.042.293.214.293.158 0 .377-.202.474-.327V14.21h.807v4.338zm-3.23 0h-.909V13.52h-.94v-.854h2.788v.854h-.939v5.027zm8.134-3.689c.289 0 .352.215.352.51v.437h-.713v-.438c0-.298.062-.509.36-.509zm-3.136.028c.14-.071.323-.058.42.07.058.076.087.188.087.334v2.24c0 .139-.023.238-.07.299-.09.117-.281.112-.412.044a.693.693 0 0 1-.192-.152v-2.703a.576.576 0 0 1 .167-.132zm.687-4.646c-.454 0-.59-.363-.59-.813V5.62h.845v3.492c0 .184.044.307.226.307.165 0 .394-.212.498-.34V5.62h.847v4.555h-.847v-.503c-.367.435-.723.568-.979.568zm-3.769-1.202V6.807c0-.732.495-1.225 1.242-1.225.686 0 1.216.51 1.216 1.225v2.23c0 .767-.535 1.222-1.216 1.222-.822 0-1.242-.418-1.242-1.221zm.872-2.157V9c0 .24.136.43.37.43.228 0 .354-.182.354-.43V6.88c0-.254-.11-.434-.37-.434-.239 0-.354.186-.354.435zm-2.892 3.294V7.67L7.034 4h.96l.658 2.468L9.263 4h.968L9.122 7.67v2.505h-.954z"/>
</svg>
