<svg xmlns="http://www.w3.org/2000/svg" xmlns:xlink="http://www.w3.org/1999/xlink" width="24" height="24" viewBox="0 0 24 24">
    <defs>
        <path id="a" d="M0 0h18v12H0z"/>
    </defs>
    <g fill="none" fill-rule="evenodd" transform="translate(3 6)">
        <mask id="b" fill="#fff">
            <use xlink:href="#a"/>
        </mask>
        <path fill="#C3C3C3" d="M16.125 5.25V3.375h-1.5V5.25H12.75v1.5h1.875v1.875h1.5V6.75H18v-1.5h-1.875zm-4.481-.375c.075.401.116.821.116 1.26C11.76 9.563 9.465 12 6 12c-3.315 0-6-2.685-6-6s2.685-6 6-6c1.62 0 2.974.596 4.013 1.564L8.32 3.255v-.004c-.63-.6-1.428-.907-2.321-.907-1.98 0-3.589 1.672-3.589 3.652 0 1.98 1.61 3.657 3.589 3.657 1.796 0 3.019-1.028 3.27-2.438H6v-2.34h5.644z" mask="url(#b)"/>
    </g>
</svg>
