<svg xmlns="http://www.w3.org/2000/svg" width="24" height="24" viewBox="0 0 24 24">
    <g fill="#C3C3C3" fill-rule="nonzero">
        <path d="M4.22 9.083l3.287-.042V19.74l-3.288.042zM10.137 9.08l3.062-.039V10.784c.908-.905 1.84-1.592 3.335-1.592 1.76 0 3.466.754 3.466 3.204v7.34l-3.107.045v-5.604c0-1.236-.304-2.031-1.75-2.031-1.274 0-1.81.232-1.81 1.943v5.646l-3.193.039-.003-10.694zM7.507 5.752a1.752 1.752 0 1 1-3.507 0A1.756 1.756 0 0 1 5.753 4c.97 0 1.754.784 1.754 1.752z"/>
    </g>
</svg>
