<svg xmlns="http://www.w3.org/2000/svg" width="24" height="24" viewBox="0 0 24 24">
    <path fill="#C3C3C3" fill-rule="evenodd" d="M4 17.025a9.694 9.694 0 0 0 5.248 1.539c6.358 0 9.95-5.37 9.733-10.187a6.932 6.932 0 0 0 1.708-1.772 6.801 6.801 0 0 1-1.965.539 3.433 3.433 0 0 0 1.505-1.894 6.855 6.855 0 0 1-2.174.83 3.42 3.42 0 0 0-2.5-1.08c-2.21 0-3.835 2.063-3.335 4.204a9.718 9.718 0 0 1-7.058-3.578 3.427 3.427 0 0 0 1.06 4.572A3.404 3.404 0 0 1 4.67 9.77c-.038 1.587 1.1 3.07 2.746 3.401a3.427 3.427 0 0 1-1.546.059 3.428 3.428 0 0 0 3.198 2.379A6.883 6.883 0 0 1 4 17.025"/>
</svg>
